<?xml version="1.0" encoding="UTF-8"?>
<svg version="1.1" xmlns="http://www.w3.org/2000/svg" width="1268" height="1168">
<path d="M0 0 C418.44 0 836.88 0 1268 0 C1268 385.44 1268 770.88 1268 1168 C849.56 1168 431.12 1168 0 1168 C0 782.56 0 397.12 0 0 Z " fill="#000000" transform="translate(0,0)"/>
<path d="M0 0 C0 209.88 0 419.76 0 636 C-347.82 636 -695.64 636 -1054 636 C-1047.22123894 626.96165192 -1047.22123894 626.96165192 -1043.3125 624.0625 C-1042.56613281 623.49660156 -1041.81976562 622.93070313 -1041.05078125 622.34765625 C-1036.96188327 619.66066615 -1032.75254464 619.47291557 -1028 620 C-1025.6603447 620.98511802 -1023.32671865 621.98470459 -1021 623 C-1017.27050952 623.25284681 -1013.50015883 623.48083643 -1010 622 C-1009.67 621.01 -1009.34 620.02 -1009 619 C-1005.37019357 616.58012905 -1002.0216138 616.14386172 -997.8046875 615.484375 C-996.96555817 615.347966 -996.12642883 615.21155701 -995.26187134 615.0710144 C-992.46768241 614.62106086 -989.67166439 614.18428846 -986.875 613.75 C-985.91037842 613.59859558 -984.94575684 613.44719116 -983.9519043 613.29119873 C-918.65920108 603.08235397 -918.65920108 603.08235397 -893.515625 603.48876953 C-883.18144336 603.51450206 -873.84914719 599.70447989 -866 593 C-863.11943333 589.54332 -861.63794349 586.13647297 -860.1875 581.9375 C-854.19303906 564.70636325 -844.42345889 552.71337707 -828.1875 544.375 C-822.13557159 541.21036059 -818.47484357 539.03609455 -816.05078125 532.40234375 C-815.28779312 529.94766249 -814.60704036 527.49725546 -814 525 C-822.61427688 523.00902691 -831.03375736 521.51665887 -839.8203125 520.625 C-843.05811629 519.98857665 -844.59605147 519.2006295 -847 517 C-838.41116085 514.19452152 -829.7808647 511.87915833 -820.98144531 509.83911133 C-816.27444446 508.71245533 -812.30059735 507.29320879 -808 505 C-807.34 505 -806.68 505 -806 505 C-807.2186425 500.30784025 -807.2186425 500.30784025 -809.125 495.875 C-810.23495488 493.49652525 -810.05960714 491.59716828 -810 489 C-802.08973229 485.90767894 -793.16421269 482.56704526 -784.79296875 485.87109375 C-781.84016448 487.73026681 -781.20001386 489.74281953 -780 493 C-779.47646056 496.65974205 -779.19046046 500.30900762 -779 504 C-770.86325287 507.45195333 -762.46586066 508.28420751 -753.8125 506.1875 C-752.884375 505.795625 -751.95625 505.40375 -751 505 C-749.8589491 501.57684729 -749.63656015 498.33010513 -749.38671875 494.76171875 C-749.27212154 493.28575768 -749.15686422 491.80984775 -749.04101562 490.33398438 C-748.86351867 488.02895213 -748.6900514 485.72393682 -748.52856445 483.41772461 C-747.46014644 468.35352154 -745.40435306 450.0961273 -734 439 C-724.04845495 432.19894409 -715.80619116 431.50365506 -704 431 C-703.30084473 430.96986816 -702.60168945 430.93973633 -701.88134766 430.90869141 C-693.75235521 430.60917209 -686.1251869 430.98972507 -678.125 432.5 C-665.04310754 434.92693815 -652.69947928 435.18200959 -639.87792969 431.43457031 C-633.05353465 429.5237397 -622.47613296 427.76193352 -616 431 C-613.36403756 431.09848651 -610.76040144 431.13899328 -608.125 431.125 C-607.04412109 431.13080078 -607.04412109 431.13080078 -605.94140625 431.13671875 C-602.49184989 431.13036598 -599.29559809 431.08702974 -596 430 C-596 429.34 -596 428.68 -596 428 C-594.38175503 426.23464186 -592.75039138 424.62568156 -591 423 C-590.50371094 422.49855469 -590.00742187 421.99710938 -589.49609375 421.48046875 C-584.61832202 416.83777036 -579.36644679 414.95353984 -573 413 C-571.61941406 412.566875 -571.61941406 412.566875 -570.2109375 412.125 C-563.67454235 410.11973423 -563.67454235 410.11973423 -560.77734375 409.60546875 C-560.19082031 409.40566406 -559.60429688 409.20585938 -559 409 C-558.67 408.01 -558.34 407.02 -558 406 C-557.34 406 -556.68 406 -556 406 C-555.5359375 404.2984375 -555.5359375 404.2984375 -555.0625 402.5625 C-554 399 -554 399 -553 398 C-552.75252391 395.85620112 -552.52746143 393.70980288 -552.3125 391.5625 C-550.96513252 382.01460813 -547.70277308 375.94111686 -540.25 369.8125 C-536.88234503 367.28802101 -533.42030425 364.92409044 -529.9375 362.5625 C-521.01203524 356.39734381 -513.71116665 348.36199996 -508.25 339 C-507.63125 338.01 -507.63125 338.01 -507 337 C-506.34 337 -505.68 337 -505 337 C-504.773125 336.01 -504.54625 335.02 -504.3125 334 C-503.22829117 330.13455982 -501.3525164 327.10759109 -499.12109375 323.796875 C-497.83264013 321.88772086 -497.83264013 321.88772086 -497 319 C-496.34 319 -495.68 319 -495 319 C-494.87238281 318.16855469 -494.87238281 318.16855469 -494.7421875 317.3203125 C-490.38605503 303.70166677 -472.87694195 292.38783141 -461 286 C-449.86917413 280.37342868 -438.0371132 277.0840651 -426 274 C-425.29133789 273.81775879 -424.58267578 273.63551758 -423.85253906 273.44775391 C-408.04376256 269.50927587 -394.40183446 270.41221952 -379 275 C-379 275.66 -379 276.32 -379 277 C-378.154375 277.226875 -377.30875 277.45375 -376.4375 277.6875 C-372.49613144 279.19238618 -369.11238141 281.12703255 -366 284 C-366 284.66 -366 285.32 -366 286 C-365.46503906 286.20496094 -364.93007813 286.40992188 -364.37890625 286.62109375 C-361.03069053 288.56184933 -358.59025267 291.2905976 -355.9375 294.0625 C-351.01158577 299.10483479 -345.9762448 303.68061089 -340.4453125 308.05859375 C-338.23509847 309.81334834 -336.11281243 311.6302936 -334 313.5 C-331.21256629 316.13158865 -331.21256629 316.13158865 -328 317 C-328 317.66 -328 318.32 -328 319 C-327.319375 319.165 -326.63875 319.33 -325.9375 319.5 C-321.56165237 321.73447538 -318.66457809 324.89086131 -316 329 C-315.25280076 333.64923973 -316.31515037 337.14302723 -317.55078125 341.62109375 C-318.82366818 348.36186018 -318.3414578 355.32390771 -317 362 C-316.51885824 369.24488461 -316.82264779 375.98913737 -318.5 383.0625 C-321.74303374 397.12604055 -318.96649862 408.48555056 -315 422 C-314.41147612 424.06102491 -313.82707409 426.12323996 -313.25 428.1875 C-313.01667969 429.01636719 -312.78335938 429.84523438 -312.54296875 430.69921875 C-312.00383083 432.98376719 -311.75196516 435.16326303 -311.5625 437.5 C-311.36345426 441.06125106 -311.36345426 441.06125106 -308.9375 442.875 C-308.298125 443.24625 -307.65875 443.6175 -307 444 C-307 444.66 -307 445.32 -307 446 C-306.236875 446.2475 -305.47375 446.495 -304.6875 446.75 C-301.7635955 448.10995558 -300.69995644 449.31585826 -299 452 C-300.52163658 455.87325675 -302.69351634 457.53772493 -306 460 C-307.54465896 461.18360511 -309.08610019 462.37141657 -310.625 463.5625 C-311.75808594 464.43068359 -311.75808594 464.43068359 -312.9140625 465.31640625 C-316.98791471 468.49648674 -316.98791471 468.49648674 -318.6875 473.25 C-318.97280744 476.05638772 -318.9754828 478.71732572 -318.87890625 481.54296875 C-318.46715495 493.98284886 -318.46715495 493.98284886 -322.90625 499.6796875 C-324.62621102 503.32846194 -324.19124723 507.03162 -324 511 C-273.4692194 516.49208328 -273.4692194 516.49208328 -228 496 C-226.10286794 494.39952373 -224.23496563 492.78401086 -222.41015625 491.1015625 C-221 490 -221 490 -219 490 C-219 489.34 -219 488.68 -219 488 C-218.34 488 -217.68 488 -217 488 C-217 487.34 -217 486.68 -217 486 C-216.34 486 -215.68 486 -215 486 C-214.72542969 485.41605469 -214.45085938 484.83210938 -214.16796875 484.23046875 C-213.03494328 482.06673115 -211.79474129 480.24956601 -210.3125 478.3125 C-209.52939453 477.28576172 -209.52939453 477.28576172 -208.73046875 476.23828125 C-205.82899208 472.48535544 -202.92314212 468.73608697 -200 465 C-199.67 465.66 -199.34 466.32 -199 467 C-199.99609375 469.3828125 -199.99609375 469.3828125 -201.4375 472.125 C-201.91058594 473.03507812 -202.38367187 473.94515625 -202.87109375 474.8828125 C-203.24363281 475.58148437 -203.61617187 476.28015625 -204 477 C-204.66 477 -205.32 477 -206 477 C-206.10441406 477.55171875 -206.20882812 478.1034375 -206.31640625 478.671875 C-207.14560384 481.49588509 -208.4279965 483.72554916 -209.9375 486.25 C-210.46214844 487.14203125 -210.98679687 488.0340625 -211.52734375 488.953125 C-212.25630859 489.96632813 -212.25630859 489.96632813 -213 491 C-213.66 491 -214.32 491 -215 491 C-215.37318359 491.85078125 -215.37318359 491.85078125 -215.75390625 492.71875 C-221.70714661 503.61747216 -234.03522577 509.81824828 -244.30102539 515.94360352 C-245.96438827 516.88868326 -245.96438827 516.88868326 -247 518 C-247.26976899 522.00438345 -247.07572356 525.6560514 -244.51171875 528.859375 C-239.80441799 532.93164376 -235.98245614 535.29069394 -229.640625 535.08984375 C-228.60679687 535.06986328 -227.57296875 535.04988281 -226.5078125 535.02929688 C-224.35143575 534.96853566 -222.19517498 534.90349408 -220.0390625 534.83398438 C-213.5240797 534.71677935 -208.93966066 535.30375004 -203 538 C-195.1756232 540.85632476 -188.36151834 543.23306225 -180.2109375 540.21484375 C-175.34584167 537.54161971 -172.11731874 533.04841768 -169.5 528.25 C-166.95422118 524.43133178 -163.04496304 523.02248152 -159 521 C-156.3276379 520.86584528 -153.67749512 520.95681459 -151 521 C-150.72027344 520.27554688 -150.44054688 519.55109375 -150.15234375 518.8046875 C-146.85330997 510.84881827 -143.09230237 505.41428892 -135 502 C-132.56152344 501.83642578 -132.56152344 501.83642578 -129.859375 501.9453125 C-128.87066406 501.96980469 -127.88195313 501.99429687 -126.86328125 502.01953125 C-124.80308629 502.08932455 -122.74315153 502.16732611 -120.68359375 502.25390625 C-113.87079507 502.4041236 -109.87690652 501.45302111 -104 498 C-103.34 498 -102.68 498 -102 498 C-102 497.34 -102 496.68 -102 496 C-101.34 496 -100.68 496 -100 496 C-97.88739504 489.8633856 -96.24059918 484.50914986 -97 478 C-100.38884813 471.34781663 -105.13643149 469.23415381 -111.875 466.6875 C-119.82126422 463.42298309 -124.5443702 459.98193545 -128 452 C-128.38818359 448.71118164 -128.38818359 448.71118164 -128.3984375 445.16015625 C-128.40230469 443.84853516 -128.40617187 442.53691406 -128.41015625 441.18554688 C-128.40387207 440.50613037 -128.39758789 439.82671387 -128.39111328 439.12670898 C-128.37528285 437.09873526 -128.39086406 435.07282779 -128.41015625 433.04492188 C-128.43521117 417.28837186 -125.57914212 403.37635337 -116.515625 390.26171875 C-114.09152089 386.64430566 -112.04155346 382.84249527 -110 379 C-109.443125 377.96875 -108.88625 376.9375 -108.3125 375.875 C-104.19520509 366.85616352 -103.92375175 357.63430832 -103.7097168 347.89868164 C-103.30847766 330.02561734 -101.26591889 314.1098038 -96 297 C-95.02397827 293.79673802 -94.06702323 290.58842673 -93.125 287.375 C-92.87073242 286.50794434 -92.61646484 285.64088867 -92.35449219 284.74755859 C-89.82761708 275.8623826 -87.98232155 266.8429668 -86.26806641 257.76904297 C-84.12564954 247.01068615 -81.10393384 238.53671079 -72 232 C-71.195625 231.38125 -70.39125 230.7625 -69.5625 230.125 C-69.046875 229.75375 -68.53125 229.3825 -68 229 C-68.62648438 228.81824219 -69.25296875 228.63648438 -69.8984375 228.44921875 C-70.71570312 228.19785156 -71.53296875 227.94648437 -72.375 227.6875 C-73.18710938 227.44386719 -73.99921875 227.20023438 -74.8359375 226.94921875 C-77 226 -77 226 -79 223 C-78.625 220.3125 -78.625 220.3125 -78 218 C-74.16714736 216.52582591 -71.74123068 217.61737127 -68 219 C-67.34 219 -66.68 219 -66 219 C-64.78767564 215.21148638 -64.55302193 211.95894865 -65 208 C-66.36098502 205.4373858 -67.90778166 203.03770732 -69.46484375 200.58984375 C-75.55139926 190.32168521 -75.15649838 178.42773063 -72.6875 167.0625 C-71.50228373 162.47598868 -69.96831442 158.31515084 -68 154 C-62.65861847 141.01205365 -62.65861847 141.01205365 -64.125 127.5 C-65.64998279 124.65336546 -67.24742258 122.09576743 -69.0625 119.4375 C-72.95613208 113.72748373 -74.68796947 108.99435627 -74 102 C-73.13362826 99.19655184 -72.14079323 96.47780199 -71.0703125 93.74609375 C-69.11418532 88.72727109 -67.82096112 84.53368738 -67.6875 79.125 C-67.19716498 70.9684655 -64.66469663 63.6597737 -62 56 C-61.34 56 -60.68 56 -60 56 C-59.8865625 55.43667969 -59.773125 54.87335937 -59.65625 54.29296875 C-57.22851077 45.81033229 -50.74222039 38.44067872 -44 33 C-39.9094095 30.84088562 -36.20664039 30.71584091 -31.625 30.5625 C-26.15842714 30.29046205 -21.70290071 29.95298417 -17 27 C-14.29819521 23.71084635 -14.78769426 20.10457774 -15 16 C-15.29185063 13.9935269 -15.61169599 11.99005807 -16 10 C-13.61435923 10.57584432 -11.33317216 11.22227595 -9 12 C-8.75765625 11.46890625 -8.5153125 10.9378125 -8.265625 10.390625 C-3.33576642 0 -3.33576642 0 0 0 Z " fill="#FEFEFE" transform="translate(1268,532)"/>
<path d="M0 0 C292.71 0 585.42 0 887 0 C892.55223881 27.76119403 892.55223881 27.76119403 890 36.375 C884.73449741 43.28597215 877.77969633 47.58014807 870.1875 51.5625 C869.30094727 52.03937256 868.41439453 52.51624512 867.50097656 53.00756836 C865.00578933 54.34833089 862.50453834 55.67680727 860 57 C847.7014135 63.51900536 835.50595435 70.16102988 825.34375 79.78125 C798.02013308 105.64760735 764.17602633 112.74904046 727.6171875 112.203125 C720.58307789 111.95343551 715.2917216 110.95343308 709 107.625 C691.3816884 98.38325173 677.962976 97.80310434 658.69921875 102.02734375 C651.39479557 103.59051548 644.27588824 104.1625359 636.8125 104.125 C635.64170898 104.13080078 635.64170898 104.13080078 634.44726562 104.13671875 C633.30741211 104.13478516 633.30741211 104.13478516 632.14453125 104.1328125 C631.46753174 104.13168457 630.79053223 104.13055664 630.09301758 104.12939453 C628 104 628 104 625.58789062 103.51098633 C608.50677509 100.13827172 590.71090869 103.34605607 574.34228516 108.33569336 C561.2512016 112.04851787 548.38347563 109.97653694 536 105 C536 104.34 536 103.68 536 103 C535.29875 102.938125 534.5975 102.87625 533.875 102.8125 C527.67829398 101.06125699 522.88796342 95.15428857 518.64453125 90.51953125 C514.31377955 86.51795782 508.41821455 83.70008199 502.5 83.5 C488.50680127 84.49777591 476.74684899 92.99788462 465.1875 100.25 C447.41072947 111.28915503 426.53645365 117.32948903 405.73828125 112.69140625 C388.57120693 108.57120693 388.57120693 108.57120693 387 107 C363.65694939 103.24457866 344.50621948 107.27764629 323.57299805 117.67089844 C305.97269108 126.26353621 289.42354815 126.91160579 271 121 C268.10944074 119.84741222 265.32383587 118.59762123 262.53125 117.2265625 C259.93645714 115.96920917 257.31488497 114.91139686 254.625 113.875 C251.20505569 112.52444875 247.98614936 111.18984287 245 109 C245 108.34 245 107.68 245 107 C244.360625 106.896875 243.72125 106.79375 243.0625 106.6875 C242.381875 106.460625 241.70125 106.23375 241 106 C240.67 105.01 240.34 104.02 240 103 C239.38125 102.71125 238.7625 102.4225 238.125 102.125 C233.52750688 99.69103305 231.66952602 93.72759192 230 89 C228.9715098 85.14442837 228.16135125 81.24949266 227.46875 77.3203125 C226.54584697 72.3749453 225.09589553 69.09298316 222 65 C221.566875 64.278125 221.13375 63.55625 220.6875 62.8125 C216.94705829 58.79498854 212.34931973 57.79280848 207.0625 57.5 C200.46202277 57.74963983 196.38794407 60.4582868 191.9375 65.1953125 C190.57116415 66.76349342 189.21167325 68.33766672 187.859375 69.91796875 C182.27099717 76.17554309 174.95317689 78.43880262 166.828125 79.359375 C158.80764159 79.71149378 158.80764159 79.71149378 155.375 76.6875 C154.92125 75.800625 154.4675 74.91375 154 74 C153.34 73.01 152.68 72.02 152 71 C149.30701014 70.67918942 149.30701014 70.67918942 146.25 70.75 C140.58842033 70.39868479 140.58842033 70.39868479 138.0859375 68.703125 C135.91709914 66.17474659 134.27341323 63.45420681 132.55859375 60.60546875 C129.42733692 55.22719244 129.42733692 55.22719244 124.125 52.4375 C123.09375 52.293125 122.0625 52.14875 121 52 C120.814375 53.485 120.814375 53.485 120.625 55 C119.95110752 59.72687438 119.14419696 64.71160609 117 69 C116.34 69 115.68 69 115 69 C114.505 70.485 114.505 70.485 114 72 C113.34 72 112.68 72 112 72 C108.57619378 78.35849727 107.74823815 83.68548075 107.98046875 90.7734375 C108.01067696 92.50389058 108.03994213 94.23436033 108.06835938 95.96484375 C108.12359579 98.65463838 108.18655561 101.34356076 108.26733398 104.03271484 C108.73347696 120.52959114 106.56033637 134.0568394 97 148 C96.45730469 148.85980469 95.91460937 149.71960938 95.35546875 150.60546875 C92.36710544 155.29523598 92.36710544 155.29523598 91 157 C90.34 157 89.68 157 89 157 C88.73703125 157.58136719 88.4740625 158.16273438 88.203125 158.76171875 C86.94085206 161.11003822 85.53551439 162.83797845 83.75 164.8125 C81.4225438 167.41036605 79.12282437 170.02039233 76.875 172.6875 C75.1641527 174.69627849 73.45836406 176.52774784 71.5625 178.375 C68.56881453 181.44170218 66.08774399 184.75878699 63.55078125 188.20703125 C63.03902344 188.79871094 62.52726562 189.39039063 62 190 C61.34 190 60.68 190 60 190 C59.87625 190.598125 59.7525 191.19625 59.625 191.8125 C59 194 59 194 57 197 C56.34 197 55.68 197 55 197 C54.9175 197.53625 54.835 198.0725 54.75 198.625 C54 201 54 201 52.125 203.75 C50.14938367 206.77153086 48.96281804 209.40070003 47.80859375 212.77734375 C47 215 47 215 45.53125 218.19140625 C43.4261879 223.04879332 42.59594221 228.14859589 41.62695312 233.328125 C40.54974613 238.62852427 38.79057462 242.37513986 36 247 C31.56189981 260.12589066 34.57412561 273.06871909 38 286 C39.14121727 290.30932615 40.28018842 294.61919914 41.41073608 298.93133545 C41.76188151 300.26866227 42.11444107 301.60561859 42.46841431 302.94219971 C45.26642489 313.53362282 47.53650781 324.13799941 49.18920898 334.97827148 C50.10535097 340.82289449 50.10535097 340.82289449 53.375 345.59765625 C55.67618106 346.82700744 57.84397815 347.91321293 60.3125 348.75 C61.529375 349.1625 62.74625 349.575 64 350 C64 350.66 64 351.32 64 352 C64.5878125 352.24363281 65.175625 352.48726563 65.78125 352.73828125 C79.25929146 360.40273088 86.7762464 385.39478841 93.3515625 398.75390625 C94.53623597 401.0867585 95.74762482 403.37085524 97.0234375 405.65234375 C109.07067569 427.25679645 113.79744689 450.91645024 107.19140625 475.0703125 C103.70000313 486.92909302 97.83736281 497.74395578 91 508 C90.34 508 89.68 508 89 508 C88.731875 508.7425 88.46375 509.485 88.1875 510.25 C87.04723249 512.89061949 85.90619694 514.85552844 84 517 C83.34 517 82.68 517 82 517 C81.566875 517.8971875 81.566875 517.8971875 81.125 518.8125 C80 521 80 521 78 524 C77.34 524 76.68 524 76 524 C75.73832031 524.74507812 75.47664063 525.49015625 75.20703125 526.2578125 C73.98827644 529.02663411 72.70268103 530.64981119 70.6875 532.875 C64.63681313 540.4573461 61.10262875 551.01706003 61.7109375 560.75 C63.48478998 574.55728417 69.92671634 586.05037621 76.72216797 597.99487305 C81.29510492 606.14109858 84.59800391 613.67636989 84.625 623.125 C84.62951172 623.85074219 84.63402344 624.57648437 84.63867188 625.32421875 C84.44605417 631.65308633 82.41979236 636.33780295 79.51708984 641.875 C76.82258354 647.05383272 75.88682116 650.24857601 77 656 C80.20948351 660.4738255 83.9571831 662.03890454 89 664 C89.99 664.66 90.98 665.32 92 666 C92 666.66 92 667.32 92 668 C92.66 668 93.32 668 94 668 C98.15630015 674.96015343 96.19143751 684.06479783 94.51171875 691.59375 C93.63531367 695.71486089 93.26110723 699.79907478 93 704 C92.91105469 705.05703125 92.82210937 706.1140625 92.73046875 707.203125 C92.24882648 717.73204912 94.38816966 727.32114558 96.71166992 737.56298828 C98.84758247 747.02921017 100.45306653 756.30909656 101 766 C101.03851074 766.66854004 101.07702148 767.33708008 101.11669922 768.02587891 C101.4911094 775.7506502 101.03349264 783.19415781 99.75 790.8125 C99.64083252 791.46935791 99.53166504 792.12621582 99.41918945 792.80297852 C98.65703256 796.82866623 97.45760348 800.37728526 95.8984375 804.16796875 C93.46595257 810.65179541 93.6208861 816.6543255 93.875 823.5 C94.26996149 836.50447293 93.57053405 847.046232 86.6171875 858.22265625 C82.27938781 865.20628664 79.11647387 872.41396136 76 880 C75.48695312 881.19367187 74.97390625 882.38734375 74.4453125 883.6171875 C69.6398984 894.86445401 66.57956426 906.44132051 64.0703125 918.3828125 C62.20581333 927.10063214 60.15195252 935.52623421 55 943 C54.01 943.33 53.02 943.66 52 944 C51.28314295 945.64570295 50.62225605 947.31624835 50 949 C48.57714464 951.10059426 47.07102513 953.11379305 45.53515625 955.1328125 C36.67001339 971.69010222 40.06829007 993.94627327 44.86816406 1011.26367188 C47.87488037 1021.18920821 51.32765609 1030.98511497 54.83447266 1040.74365234 C60.00825551 1055.25075346 64.3356211 1069.96533576 66.0625 1085.3125 C66.72611128 1090.99971069 67.92067182 1095.19270349 71 1100 C73.06833133 1103.2783755 74.82754145 1106.23177557 75.6875 1110.0625 C74.41569079 1115.49659389 69.43742063 1118.04171958 65 1121 C65.99 1121.66 66.98 1122.32 68 1123 C68 1123.66 68 1124.32 68 1125 C69.36125 1125.4021875 69.36125 1125.4021875 70.75 1125.8125 C73.72991834 1126.90131632 75.68590359 1127.86391101 78 1130 C78 1130.66 78 1131.32 78 1132 C78.53496094 1132.21398438 79.06992188 1132.42796875 79.62109375 1132.6484375 C91.91314637 1139.63209958 102.84244854 1155.10612135 108 1168 C72.36 1168 36.72 1168 0 1168 C0 782.56 0 397.12 0 0 Z " fill="#FEFEFE" transform="translate(0,0)"/>
<path d="M0 0 C0.81678726 -0.0065712 1.63357452 -0.0131424 2.47511292 -0.01991272 C5.17449034 -0.03960061 7.87381224 -0.05129841 10.57324219 -0.0612793 C11.49735649 -0.06535482 12.42147079 -0.06943035 13.37358856 -0.07362938 C18.26517003 -0.09447115 23.15672361 -0.10878091 28.04833984 -0.11816406 C33.08990707 -0.12922302 38.13103228 -0.16362247 43.17244339 -0.20333576 C47.05876463 -0.22953125 50.944981 -0.23785851 54.83138275 -0.24144554 C56.68924697 -0.24630409 58.54710674 -0.25789716 60.40488434 -0.27648354 C63.01116077 -0.30093722 65.61629925 -0.29989881 68.22265625 -0.29296875 C68.98242264 -0.30577881 69.74218903 -0.31858887 70.52497864 -0.33178711 C77.40838027 -0.26544095 82.56322292 2.00982481 87.57495117 6.71801758 C90.88621444 11.14305292 92.64364384 16.39831893 94.59277344 21.52075195 C95.02324478 22.62471313 95.45371613 23.72867432 95.89723206 24.86608887 C97.23266741 28.29886769 98.55217205 31.73747604 99.87011719 35.17700195 C100.66076084 37.21900191 101.45223277 39.26068141 102.24462891 41.30200195 C104.20295737 46.35728201 106.14629881 51.41817355 108.08425903 56.48129272 C110.24571634 62.12754525 112.41366728 67.77130495 114.58105469 73.4152832 C115.02282547 74.56599808 115.46459625 75.71671295 115.91975403 76.90229797 C122.33749948 93.61172341 128.82201989 110.29527902 135.30169678 126.98075867 C138.16125289 134.34593313 141.0130367 141.71409216 143.86230469 149.08325195 C151.41044299 168.59955793 158.9844422 188.10032395 166.79589844 207.51293945 C170.63118312 217.05188239 174.40545992 226.61492614 178.18261719 236.17700195 C178.54550842 237.09551941 178.90839966 238.01403687 179.2822876 238.96038818 C181.81268078 245.36548542 184.34161208 251.77115918 186.87011719 258.17700195 C187.52033902 259.82413975 188.1705667 261.47127524 188.82080078 263.1184082 C191.28114361 269.35095564 193.74134523 275.58355872 196.20092773 281.81640625 C199.86997694 291.11363494 203.54231674 300.40955585 207.21858215 309.70393372 C209.0261687 314.27395395 210.83292472 318.84429783 212.63745117 323.41552734 C215.70173503 331.17632379 218.76887429 338.93573359 221.87060547 346.68165588 C223.1064402 349.76934593 224.33742609 352.85895658 225.56781006 355.94882202 C226.13860408 357.37822416 226.71183816 358.80665464 227.28765869 360.23403931 C228.07258124 362.18008869 228.84920236 364.12925705 229.62402344 366.0793457 C230.06045166 367.16723389 230.49687988 368.25512207 230.9465332 369.37597656 C231.87011719 372.17700195 231.87011719 372.17700195 231.87011719 376.17700195 C231.21011719 376.17700195 230.55011719 376.17700195 229.87011719 376.17700195 C229.87011719 376.83700195 229.87011719 377.49700195 229.87011719 378.17700195 C226.1950388 380.49897395 223.01933912 380.44209839 218.73413086 380.4675293 C218.02302658 380.47424652 217.3119223 380.48096375 216.57926941 380.48788452 C214.23213683 380.50685687 211.8852904 380.51078851 209.53808594 380.51293945 C207.90147281 380.51936873 206.26486084 380.52609719 204.62825012 380.53311157 C201.1976963 380.545083 197.76724316 380.54879262 194.33666992 380.54760742 C189.95184348 380.54740443 185.56766657 380.5746867 181.18299389 380.60915184 C177.80195685 380.63144879 174.42107532 380.63544409 171.03997231 380.63438797 C169.42411375 380.63674049 167.80825068 380.64554432 166.19246483 380.6610527 C163.92595063 380.68076708 161.66082625 380.67485438 159.39428711 380.6628418 C157.46379768 380.66711685 157.46379768 380.66711685 155.49430847 380.67147827 C151.03301428 380.06278956 148.61766862 378.61328692 144.87011719 376.17700195 C144.87011719 375.51700195 144.87011719 374.85700195 144.87011719 374.17700195 C144.21011719 374.17700195 143.55011719 374.17700195 142.87011719 374.17700195 C141.30729848 370.34379849 139.74492784 366.51041251 138.18261719 362.67700195 C137.69510986 361.48115479 137.20760254 360.28530762 136.70532227 359.05322266 C133.94844068 352.28876374 131.19791781 345.5217817 128.45605469 338.7512207 C127.60116076 336.64166023 126.74618593 334.53213256 125.89120483 332.42260742 C125.34433066 331.07238981 124.7979475 329.72197319 124.25210571 328.37133789 C122.72425794 324.59098874 121.18261166 320.81673715 119.62982178 317.04656982 C118.8436745 315.11192876 118.08398073 313.16811935 117.32568359 311.22241211 C116.81625633 309.9531679 116.3063457 308.68411755 115.79589844 307.4152832 C115.35286377 306.28775635 114.9098291 305.16022949 114.45336914 303.99853516 C112.64571266 300.77708782 111.15909298 299.75622326 107.87011719 298.17700195 C107.21011719 297.84700195 106.55011719 297.51700195 105.87011719 297.17700195 C104.06145747 297.07719755 102.24910176 297.04191238 100.43769836 297.03656006 C98.70701866 297.02799484 98.70701866 297.02799484 96.94137573 297.01925659 C95.66916168 297.01813873 94.39694763 297.01702087 93.08618164 297.01586914 C91.73765425 297.01124156 90.38912818 297.00621698 89.04060364 297.00082397 C85.37094811 296.98768874 81.70131089 296.98125238 78.03163552 296.97681332 C75.73835964 296.97388329 73.44508877 296.96977853 71.15181541 296.96530914 C63.9751746 296.95162881 56.79854523 296.94196582 49.62189227 296.93810725 C41.34096616 296.93363053 33.06020543 296.91610291 24.7793296 296.88710666 C18.3775309 296.86546976 11.97577866 296.85540184 5.57394379 296.85406613 C1.75127603 296.85301918 -2.07123637 296.84713525 -5.89386559 296.82924652 C-9.49309828 296.81273189 -13.09205945 296.81062662 -16.6913166 296.81938553 C-18.63539737 296.82051955 -20.57946925 296.80682679 -22.52349854 296.79263306 C-28.80565638 296.82259001 -33.64735821 296.97132924 -39.12988281 300.17700195 C-42.66082728 304.19835537 -43.99205468 308.43933547 -45.32128906 313.5168457 C-46.12592893 316.16399425 -47.18583213 318.61937344 -48.2980957 321.14892578 C-50.31643126 326.0700627 -51.8136308 331.20097321 -53.43652344 336.26293945 C-55.10245943 341.36834686 -56.95219407 346.26971072 -59.22753906 351.13623047 C-60.81056646 354.71645938 -61.92508056 358.45667851 -63.12988281 362.17700195 C-65.30900787 368.71437713 -67.33924442 374.27447184 -73.26367188 378.31347656 C-79.81539725 381.43086545 -87.20549882 380.77223378 -94.30175781 380.7434082 C-95.87258267 380.74864942 -97.44340438 380.75492771 -99.01422119 380.76219177 C-102.29234731 380.77255851 -105.57003823 380.76808437 -108.84814453 380.75341797 C-113.04730137 380.73616689 -117.2450979 380.75982086 -121.44410324 380.79490757 C-124.68181405 380.81686072 -127.91919758 380.81544647 -131.15695953 380.80714226 C-132.705513 380.80632289 -134.25409053 380.81318356 -135.80257416 380.82791328 C-137.96429112 380.8453387 -140.12353873 380.83084317 -142.28515625 380.80810547 C-144.12759918 380.80666283 -144.12759918 380.80666283 -146.00726318 380.80519104 C-149.12988281 380.17700195 -149.12988281 380.17700195 -151.53033447 377.87974548 C-153.63927747 374.31628204 -153.89585064 371.16555512 -153.12988281 367.17700195 C-152.42211341 365.48861291 -151.71022777 363.80158997 -150.96118164 362.13110352 C-149.48740499 358.66675452 -148.40401775 355.07169366 -147.25488281 351.48950195 C-145.57963062 346.35596545 -143.85507928 341.31800475 -141.69238281 336.36450195 C-138.91767454 329.96201976 -136.7880664 323.36517135 -134.62817383 316.73632812 C-133.15312561 312.21287517 -131.62523994 307.72993049 -129.92895508 303.28466797 C-128.27948394 298.93395476 -126.71510413 294.55143841 -125.12988281 290.17700195 C-123.77617671 286.44766799 -122.42175558 282.71859384 -121.06738281 278.98950195 C-120.72900391 278.05686523 -120.390625 277.12422852 -120.04199219 276.16333008 C-114.79231782 261.71403292 -114.79231782 261.71403292 -112.12988281 255.30200195 C-110.77109832 251.94106909 -109.62423694 248.60014549 -108.62988281 245.11450195 C-107.70185581 241.88396471 -106.6191979 238.90689365 -105.19238281 235.86450195 C-103.51994208 232.26622037 -102.31595327 228.67014382 -101.19238281 224.86450195 C-99.5723015 219.39194383 -97.53996041 214.24505424 -95.28222656 209.0090332 C-93.91136814 205.63997436 -92.92851754 202.23579779 -91.94238281 198.73950195 C-90.67918408 194.75556749 -88.97083947 190.9722272 -87.32519531 187.1340332 C-85.9311049 183.68525399 -84.86802295 180.21566624 -83.90332031 176.6262207 C-83.08702641 174.04129001 -82.02384054 171.61390239 -80.93701172 169.13330078 C-79.46012418 165.55365776 -78.31661627 161.86082041 -77.12988281 158.17700195 C-75.59011607 153.39730935 -73.97666632 148.77058793 -71.94238281 144.17358398 C-69.65298165 138.54776587 -67.95467324 132.67104221 -66.09082031 126.89379883 C-64.40912611 121.75564537 -62.62618751 116.9846999 -60.12988281 112.17700195 C-59.43855434 110.12930278 -58.79327356 108.06554079 -58.19238281 105.98950195 C-56.68407603 100.93895955 -55.03016269 95.99103536 -53.19238281 91.05200195 C-51.98827386 87.7938248 -50.8424287 84.51713272 -49.69238281 81.23950195 C-48.11486631 76.79729292 -46.42966727 72.44459894 -44.56738281 68.11450195 C-42.3394224 62.88333472 -40.64562573 57.58502409 -39.02832031 52.13793945 C-38.10465252 49.0938517 -37.05200645 46.14135328 -35.90332031 43.17700195 C-34.98908875 40.81292842 -34.12054059 38.43429215 -33.25488281 36.05200195 C-32.9184375 35.12645508 -32.58199219 34.2009082 -32.23535156 33.24731445 C-31.43926939 31.03628765 -30.65117085 28.82238048 -29.86816406 26.60668945 C-27.78498873 20.71374301 -25.70683213 14.87341624 -23.12988281 9.17700195 C-22.46988281 9.17700195 -21.80988281 9.17700195 -21.12988281 9.17700195 C-20.94425781 8.59950195 -20.75863281 8.02200195 -20.56738281 7.42700195 C-18.25749554 3.81152622 -14.5444705 1.98948105 -10.52227783 0.63606262 C-7.02702296 -0.03461844 -3.54588681 0.01241699 0 0 Z " fill="#FEFEFE" transform="translate(448.1298828125,412.822998046875)"/>
<path d="M0 0 C0.86367188 0.17934082 1.72734375 0.35868164 2.6171875 0.54345703 C32.5087384 6.8179615 32.5087384 6.8179615 44 14 C45.19625 14.45375 46.3925 14.9075 47.625 15.375 C51.83468394 17.40188486 53.35211692 19.1839332 56 23 C57.11297681 26.26449056 57.13249155 29.35911934 57.14526367 32.79077148 C57.15483345 34.53794716 57.15483345 34.53794716 57.16459656 36.32041931 C57.16626579 38.20175316 57.16626579 38.20175316 57.16796875 40.12109375 C57.17129715 41.41314224 57.17462555 42.70519073 57.17805481 44.03639221 C57.18403488 46.76914302 57.18589583 49.50186225 57.18530273 52.23461914 C57.1852011 55.72938234 57.19885939 59.22394243 57.21607494 62.71865749 C57.22989212 66.06113928 57.22928422 69.40358377 57.23046875 72.74609375 C57.23765427 73.99829208 57.24483978 75.25049042 57.25224304 76.54063416 C57.24916641 77.7085701 57.24608978 78.87650604 57.24291992 80.07983398 C57.24434494 81.10479477 57.24576996 82.12975555 57.24723816 83.18577576 C56.98231854 86.20126184 56.39459498 88.31745265 55 91 C51.6771849 93.21521007 50.85066377 93.44813759 47 93 C44.79489001 92.06510156 42.63158419 91.02969686 40.5 89.9375 C26.84772332 83.2415229 11.99218565 78.49347021 -3 76 C-3.69931641 75.86609863 -4.39863281 75.73219727 -5.11914062 75.59423828 C-19.45804736 72.89125099 -33.76852428 72.68013109 -48.3125 72.625 C-49.24854065 72.61723541 -50.1845813 72.60947083 -51.14898682 72.60147095 C-83.47584637 72.39029757 -110.78279915 80.82153893 -136.65234375 100.36328125 C-139 102 -139 102 -142 103 C-142 103.66 -142 104.32 -142 105 C-143.5390625 106.48046875 -143.5390625 106.48046875 -145.625 108.1875 C-149.95522042 111.86395713 -154.42601559 115.85203119 -157 121 C-157.66 121 -158.32 121 -159 121 C-159.268125 121.70125 -159.53625 122.4025 -159.8125 123.125 C-161.0681449 126.1649824 -162.50235123 129.0727774 -164 132 C-164.66 132 -165.32 132 -166 132 C-166.13809082 132.58555664 -166.27618164 133.17111328 -166.41845703 133.77441406 C-167.31122176 137.19105691 -168.6191041 140.45403906 -169.875 143.75 C-170.13152344 144.42804688 -170.38804687 145.10609375 -170.65234375 145.8046875 C-170.90886719 146.48273438 -171.16539062 147.16078125 -171.4296875 147.859375 C-171.6879834 148.54418945 -171.9462793 149.22900391 -172.21240234 149.93457031 C-172.73397309 151.30235969 -173.2654433 152.66641846 -173.80712891 154.02636719 C-185.84194033 184.69982201 -181.2800715 221.69991298 -168.625 251.3125 C-165.68074304 257.95389791 -162.21489979 264.06896652 -158 270 C-157.43410156 270.80050781 -156.86820313 271.60101562 -156.28515625 272.42578125 C-150.78711413 279.84377458 -144.51089537 285.42559165 -136.46875 289.95703125 C-135.9840625 290.30121094 -135.499375 290.64539063 -135 291 C-135 291.66 -135 292.32 -135 293 C-134.484375 293.103125 -133.96875 293.20625 -133.4375 293.3125 C-130.13973565 294.24263866 -127.13366668 295.61395512 -124 297 C-124 297.66 -124 298.32 -124 299 C-123.17628906 299.11472656 -122.35257813 299.22945312 -121.50390625 299.34765625 C-116.8376579 300.21640037 -112.40595963 301.64297193 -107.89257812 303.09570312 C-96.0673435 306.7317171 -84.10810494 307.40316385 -71.8125 307.375 C-71.07953705 307.37578552 -70.3465741 307.37657104 -69.59140015 307.37738037 C-55.47996732 307.35941109 -41.83052966 305.92700906 -28 303 C-27.27989746 302.8669043 -26.55979492 302.73380859 -25.81787109 302.59667969 C-23.70615038 302.18874079 -23.70615038 302.18874079 -21 301 C-18.28372594 296.42357596 -18.71125604 291.39825639 -18.734375 286.24609375 C-18.73150482 284.839291 -18.73150482 284.839291 -18.72857666 283.40406799 C-18.72721869 281.42635835 -18.73088799 279.44863967 -18.73925781 277.47094727 C-18.74997478 274.44462081 -18.73934314 271.41888633 -18.7265625 268.39257812 C-18.72788393 266.46874869 -18.73044598 264.54491963 -18.734375 262.62109375 C-18.72830231 261.26473061 -18.72830231 261.26473061 -18.72210693 259.88096619 C-18.72841125 259.03651443 -18.73471558 258.19206268 -18.74121094 257.32202148 C-18.74280212 256.58209457 -18.74439331 255.84216766 -18.74603271 255.07981873 C-19.04802658 252.60669506 -19.5979943 251.06394969 -21 249 C-27.18166672 246.11664841 -34.98303455 246.72012785 -41.640625 246.7265625 C-43.8671927 246.70629242 -46.09375518 246.68544203 -48.3203125 246.6640625 C-51.79854798 246.64139335 -55.2765766 246.62495557 -58.75488281 246.61914062 C-62.13383397 246.60963584 -65.51187701 246.5759091 -68.890625 246.5390625 C-69.93027405 246.54410797 -70.9699231 246.54915344 -72.04107666 246.55435181 C-76.27380104 246.49657182 -79.24826558 246.37562803 -83.06933594 244.46630859 C-88.2250151 237.88023488 -87.30700398 229.13261615 -87.30078125 221.1796875 C-87.30506638 219.96225861 -87.3093515 218.74482971 -87.31376648 217.49050903 C-87.31948941 214.92710999 -87.32002513 212.36369471 -87.31567383 209.80029297 C-87.31250477 205.88090443 -87.33603125 201.96226463 -87.36132812 198.04296875 C-87.36360041 195.54687595 -87.36430494 193.05078112 -87.36328125 190.5546875 C-87.372491 189.38582001 -87.38170074 188.21695251 -87.39118958 187.01266479 C-87.33317128 176.81429651 -87.33317128 176.81429651 -84 172 C-79.63473949 168.83894929 -73.72284652 168.87577363 -68.50416565 168.86628723 C-67.43743622 168.86202225 -66.37070679 168.85775726 -65.27165222 168.85336304 C-63.53918999 168.85404282 -63.53918999 168.85404282 -61.77172852 168.85473633 C-60.54339294 168.85137772 -59.31505737 168.8480191 -58.04949951 168.84455872 C-54.69203489 168.83670301 -51.33463212 168.83338215 -47.9771626 168.83274293 C-45.87683617 168.83203055 -43.77651616 168.8298927 -41.67619133 168.82724571 C-34.34133367 168.81800508 -27.00649415 168.81390934 -19.67163086 168.81469727 C-12.84607657 168.81529815 -6.02060129 168.80474099 0.80493301 168.7889536 C6.67603152 168.7758601 12.54710425 168.77051411 18.41821724 168.77115268 C21.91997279 168.77140707 25.42165803 168.76858798 28.92339897 168.75797462 C32.82974182 168.74645706 36.73597694 168.75105155 40.64233398 168.75708008 C41.79528458 168.75146057 42.94823517 168.74584106 44.13612366 168.74005127 C57.28138937 168.79160352 57.28138937 168.79160352 61.60897541 172.3070116 C66.98661553 178.85203057 65.28022961 190.91939034 65.25537109 198.83789062 C65.25812643 200.31080824 65.2618096 201.78372436 65.26634216 203.25663757 C65.27440724 206.40985629 65.27663456 209.5630043 65.27439499 212.7162323 C65.27154384 217.7101716 65.2859799 222.70397151 65.30337524 227.69787598 C65.35023357 241.8921502 65.37434163 256.08641348 65.38085938 270.28076172 C65.38461769 278.13453109 65.40270378 285.98814111 65.43595374 293.84184217 C65.45608523 298.79839045 65.45857942 303.75452549 65.44767356 308.71109772 C65.44505384 311.80257792 65.45913069 314.89382071 65.47775459 317.98523903 C65.48304551 319.40976404 65.48163329 320.83433362 65.47271919 322.25884056 C65.42890718 329.87936769 65.79863451 336.11318487 69.14307594 343.04117584 C70 345 70 345 70 348 C30.75070489 383.0394746 -36.78938836 389.42013829 -86.85986328 386.79785156 C-115.70535717 384.74933062 -142.90224143 377.27134696 -169 365 C-169.97912354 364.54802246 -169.97912354 364.54802246 -170.97802734 364.08691406 C-191.87260667 354.30471071 -200.53554113 338.38264878 -208.87692261 317.69195557 C-210.72149995 313.11875402 -212.59671543 308.55810839 -214.46875 303.99609375 C-214.84893784 303.06772705 -215.22912567 302.13936035 -215.62083435 301.18286133 C-219.27596195 292.27862459 -223.09015518 283.44746776 -226.9375 274.625 C-277.6933249 157.94492454 -277.6933249 157.94492454 -260.03125 112.5078125 C-257.17122722 105.77689682 -253.52193629 99.40082242 -250 93 C-249.34 93 -248.68 93 -248 93 C-247.34 91.02 -246.68 89.04 -246 87 C-245.34 87 -244.68 87 -244 87 C-243.93296875 86.47148437 -243.8659375 85.94296875 -243.796875 85.3984375 C-242.65520828 81.96224452 -240.47822807 79.41994504 -238.25 76.625 C-237.81945312 76.07328125 -237.38890625 75.5215625 -236.9453125 74.953125 C-232.56030282 69.36026834 -228.08607049 63.97669263 -223 59 C-222.05644896 58.0372536 -221.11510757 57.07233754 -220.17578125 56.10546875 C-219.2213791 55.13278804 -218.26695188 54.16013192 -217.3125 53.1875 C-216.82716797 52.68541016 -216.34183594 52.18332031 -215.84179688 51.66601562 C-214.59875394 50.40582727 -213.30300108 49.19808956 -212 48 C-211.34 48 -210.68 48 -210 48 C-210 47.34 -210 46.68 -210 46 C-207.8828125 44.0546875 -207.8828125 44.0546875 -205.125 41.875 C-204.22007812 41.15054688 -203.31515625 40.42609375 -202.3828125 39.6796875 C-200 38 -200 38 -198 38 C-198 37.34 -198 36.68 -198 36 C-195.91015625 34.484375 -195.91015625 34.484375 -193.0625 32.75 C-189.57382205 30.6027807 -186.15624127 28.42774334 -182.8125 26.0625 C-132.35008751 -7.49010936 -57.76589186 -12.20529333 0 0 Z " fill="#FDFDFD" transform="translate(883,413)"/>
<path d="M0 0 C0.66 0 1.32 0 2 0 C2.44577393 1.16716553 2.89154785 2.33433105 3.35083008 3.53686523 C12.03693225 26.27362029 20.75523319 48.99737586 29.5625 71.6875 C30.34783118 73.71158382 31.1331502 75.73567236 31.91845703 77.75976562 C35.1061003 85.97432803 38.29501091 94.18839347 41.48925781 102.40039062 C43.50977364 107.59508255 45.52714689 112.79098508 47.54244995 117.98770142 C48.30123442 119.94242938 49.06124971 121.89668005 49.82254028 123.85043335 C50.86781531 126.53323145 51.90900134 129.21758141 52.94921875 131.90234375 C53.26069855 132.69876282 53.57217834 133.49518188 53.89309692 134.31573486 C56 139.77200943 56 139.77200943 56 142 C49.91419282 143.77146256 44.50653341 144.27878645 38.1875 144.22705078 C36.76660316 144.22748886 36.76660316 144.22748886 35.31700134 144.22793579 C32.2112384 144.22655147 29.10572061 144.21103273 26 144.1953125 C23.83667125 144.19157918 21.67334081 144.18873371 19.51000977 144.18673706 C13.83501461 144.17912577 8.16012293 144.15949884 2.48516846 144.1373291 C-3.31325888 144.11681664 -9.11170304 144.10772381 -14.91015625 144.09765625 C-26.27348279 144.07625054 -37.63673277 144.04214493 -49 144 C-48.69926235 142.56687378 -48.39361948 141.13477639 -48.0859375 139.703125 C-47.91626465 138.90551758 -47.7465918 138.10791016 -47.57177734 137.28613281 C-46.93552731 134.74221935 -45.94671197 132.4486674 -44.8515625 130.0703125 C-43.26568308 126.21473409 -42.17069508 122.1913973 -40.96875 118.203125 C-38.2321186 109.15458568 -35.23593138 100.09792354 -31.4375 91.4375 C-30.3480906 88.83239058 -29.51557092 86.44573762 -28.75 83.75 C-27.25543245 78.56671253 -25.38892472 73.54902492 -23.5 68.5 C-21.35420889 62.76293133 -19.33685142 57.05687503 -17.66796875 51.16015625 C-16.94782099 48.83125735 -16.06273445 46.62482139 -15.125 44.375 C-13.31113595 39.98572592 -11.88078144 35.538509 -10.5 31 C-8.89339496 25.72063105 -7.1138424 20.62131756 -4.98046875 15.52734375 C-3.01317605 10.45627453 -1.53659102 5.21460146 0 0 Z " fill="#020202" transform="translate(479,499)"/>
<path d="M0 0 C0.99 0.33 1.98 0.66 3 1 C3.7734375 3.80859375 3.7734375 3.80859375 4.375 7.4375 C6.17863184 16.66232537 9.04023989 23.63679075 16 30 C16 30.66 16 31.32 16 32 C15.34 32 14.68 32 14 32 C14 32.66 14 33.32 14 34 C13.34 34 12.68 34 12 34 C11.31225595 35.32258472 10.65288627 36.65986503 10 38 C9.23852661 39.36644653 9.23852661 39.36644653 8.46166992 40.76049805 C5.99171886 46.60453396 6.46399104 53.03124227 6.42578125 59.26953125 C6.41102181 60.67372256 6.39614219 62.07791261 6.38114929 63.48210144 C6.35422806 66.42488158 6.34063072 69.36741099 6.33422852 72.31030273 C6.32558139 75.2929944 6.29109824 78.27350793 6.23168945 81.25561523 C5.91550783 97.41070381 5.65804626 111.73135721 14.03874207 126.11074829 C15.81362392 129.59909252 16.74635589 133.35704505 17.75 137.125 C21.85391829 151.97261105 29.01120041 159.68147985 41 169 C41.6388916 169.50321777 42.2777832 170.00643555 42.93603516 170.52490234 C45.01044566 172.15412649 47.09696144 173.76653739 49.1875 175.375 C50.16662354 176.14299927 50.16662354 176.14299927 51.16552734 176.92651367 C59.18395114 183.01046498 67.54111042 184.6892928 77.28515625 186.4609375 C85.14750267 187.99077205 85.14750267 187.99077205 88 191 C88 191.66 88 192.32 88 193 C74.70947391 193.9326685 62.63476466 188.88605295 51 183 C51 182.34 51 181.68 51 181 C50.14535156 180.83757812 50.14535156 180.83757812 49.2734375 180.671875 C42.86447661 178.77781783 36.85757576 173.48391609 32 169 C32 168.34 32 167.68 32 167 C31.360625 166.731875 30.72125 166.46375 30.0625 166.1875 C28 165 28 165 27 162 C26.01 161.67 25.02 161.34 24 161 C22.1309334 158.66069053 20.4251805 156.34772204 18.75 153.875 C18.01910156 152.79943848 18.01910156 152.79943848 17.2734375 151.70214844 C7.21855053 136.54666735 2.81121582 121.06910895 1 103 C0.91509811 102.17163635 0.83019623 101.34327271 0.74272156 100.48980713 C-0.19717296 90.00884287 -0.12677963 79.55745904 -0.09765625 69.04296875 C-0.09578731 67.04372697 -0.09436566 65.04448472 -0.09336853 63.04524231 C-0.08958083 57.82574156 -0.07978327 52.60626938 -0.06866455 47.38677979 C-0.05836914 42.04366441 -0.05385362 36.70054435 -0.04882812 31.35742188 C-0.03815703 20.90493548 -0.02112655 10.45247013 0 0 Z " fill="#F5F5F5" transform="translate(140,860)"/>
<path d="M0 0 C22.4121652 3.25617238 22.4121652 3.25617238 26 7 C26 7.66 26 8.32 26 9 C20.08708353 9.41494151 14.80970366 8.72571293 9.0625 7.3125 C8.39984131 7.16393555 7.73718262 7.01537109 7.05444336 6.86230469 C5.16015625 6.36328125 5.16015625 6.36328125 2 5 C0.55859375 2.35546875 0.55859375 2.35546875 0 0 Z " fill="#E1E1E1" transform="translate(202,1044)"/>
<path d="M0 0 C0.33 0 0.66 0 1 0 C1.02716089 3.02089478 1.04691657 6.04154129 1.0625 9.0625 C1.07087891 9.91005859 1.07925781 10.75761719 1.08789062 11.63085938 C1.10683006 16.5361722 0.83326345 21.16444755 0 26 C-0.66 26 -1.32 26 -2 26 C-5.70315215 16.51067262 -3.12575547 9.27958654 0 0 Z " fill="#E0E0E0" transform="translate(144,276)"/>
<path d="M0 0 C0.33 0.66 0.66 1.32 1 2 C-0.1875 5.0625 -0.1875 5.0625 -2 8 C-4.1875 8.875 -4.1875 8.875 -6 9 C-4.47291037 5.56404834 -2.40072955 2.88087546 0 0 Z " fill="#C1C1C1" transform="translate(1068,997)"/>
</svg>
