<svg version="1.1" id="Layer_1" xmlns="http://www.w3.org/2000/svg" xmlns:xlink="http://www.w3.org/1999/xlink" x="0px" y="0px"
	 width="100%" viewBox="0 0 1024 672" enable-background="new 0 0 1024 672" xml:space="preserve">
<path fill="#000000" opacity="1.000000" stroke="none" 
	d="
M824.531372,1.000000 
	C822.731262,3.286406 822.733093,6.228767 823.238220,8.985068 
	C824.426697,15.469398 822.555359,20.328030 816.883789,23.921082 
	C813.715027,25.928486 811.850037,28.901323 812.196289,33.034290 
	C812.309143,34.380978 811.364685,35.843346 810.801880,37.210873 
	C810.362183,38.279324 809.166443,39.392349 809.332092,40.298153 
	C810.699707,47.780956 804.562439,51.700573 801.532349,57.039997 
	C797.624695,63.925690 798.137451,71.538200 797.945923,78.879356 
	C797.734619,86.979027 796.679382,95.044670 797.597351,103.262329 
	C798.156311,108.265694 793.032837,112.201256 792.120544,117.409241 
	C791.683411,119.904892 790.997009,121.976860 793.420715,123.554771 
	C795.914185,125.178116 795.639099,127.492104 794.222778,129.157013 
	C790.670715,133.332474 793.254639,136.511307 795.381775,139.879517 
	C795.553833,140.152054 795.878906,140.322784 796.099182,140.570786 
	C801.722412,146.902924 806.601074,146.581680 811.503601,139.388214 
	C814.450195,142.545059 813.982544,146.424713 814.047424,150.158417 
	C814.079224,151.990112 813.925659,153.828201 814.020874,155.654800 
	C814.141724,157.976151 814.086121,160.815643 816.801758,161.498474 
	C819.531433,162.184845 822.112854,160.819290 823.747620,158.490402 
	C826.338501,154.799698 826.625610,150.700806 824.853210,146.600555 
	C822.948120,142.193344 824.734558,139.962708 828.950195,138.965820 
	C831.539001,138.353638 834.118958,137.627502 836.746033,137.271255 
	C840.818604,136.718964 841.992126,134.620087 839.872314,131.038284 
	C839.291443,130.056839 838.416565,129.224289 837.580688,128.423477 
	C834.534546,125.504883 832.916748,122.677261 837.330566,119.462143 
	C838.961365,118.274239 839.759644,116.315453 840.285645,114.345177 
	C840.890869,112.078407 842.750244,111.804672 844.610413,111.738716 
	C847.072144,111.651436 846.692810,113.809212 847.248291,115.270653 
	C849.051819,120.015717 845.946594,125.539406 850.049927,130.125336 
	C843.901123,133.843918 851.507935,138.580185 848.524475,142.409607 
	C849.811768,143.720352 850.562805,142.481812 851.448608,142.347122 
	C853.932129,141.969452 857.170044,139.738312 858.651855,142.844147 
	C860.192322,146.072617 859.345581,151.050613 856.503662,152.335388 
	C849.617188,155.448624 849.202942,162.228348 846.031616,167.418747 
	C845.606445,168.114471 845.613586,169.099106 845.133423,169.732239 
	C842.481567,173.228882 843.642944,176.213837 846.864075,178.110031 
	C850.509460,180.255936 853.241272,178.649902 854.517822,174.334808 
	C856.941589,175.055206 859.274658,175.147949 861.576111,174.994049 
	C862.156006,181.329666 860.368958,182.771454 855.093872,184.574341 
	C852.006653,185.629471 845.330017,184.402100 847.066284,191.781219 
	C847.363159,193.042923 845.414917,194.235443 843.897705,194.540894 
	C842.221313,194.878387 841.658020,193.401993 841.038818,192.249344 
	C837.257080,185.208984 831.716614,184.621384 824.410461,187.880325 
	C816.318909,191.489624 813.496826,196.691040 814.944763,204.942551 
	C815.000916,205.262177 815.008240,205.645798 814.884460,205.933350 
	C812.095703,212.410690 814.393738,219.183685 813.635986,225.745499 
	C813.356995,228.161240 811.222656,230.153595 811.033813,232.995407 
	C810.781311,236.795532 807.158630,235.954453 804.733154,236.363037 
	C801.033630,236.986206 799.539795,239.601608 798.283386,242.621613 
	C796.408569,247.127808 794.491028,251.616211 792.428894,256.497467 
	C786.403625,252.664185 783.060608,258.475098 779.433960,260.769104 
	C773.287598,264.657013 766.557739,268.045227 761.645203,273.887360 
	C760.192627,275.614838 758.107422,276.701355 758.285034,279.474304 
	C753.726624,276.765839 752.635742,277.305420 749.649231,283.424103 
	C749.026001,283.005707 748.412476,282.593750 746.887207,281.569672 
	C750.143494,290.307190 744.846252,290.167664 739.515076,290.056244 
	C738.876953,290.042908 738.196838,290.290924 737.595337,290.553406 
	C733.059082,292.533234 726.871094,303.605133 727.759521,308.616425 
	C728.160767,310.879486 727.041931,312.503143 726.283752,314.267303 
	C724.688782,317.978882 724.779297,321.144989 727.615723,324.406891 
	C730.032227,327.185852 730.233582,329.799225 728.569580,334.055756 
	C725.835449,341.050201 722.661011,349.071075 728.315063,356.652832 
	C729.610596,358.390015 728.696411,360.097168 727.726196,361.508728 
	C725.956116,362.501038 725.379944,360.297089 723.860413,360.451019 
	C722.074280,363.847382 724.906799,364.408020 728.130798,365.345520 
	C722.431396,367.757202 721.371216,372.068573 720.633179,376.556946 
	C719.200684,385.267975 715.395752,393.417511 714.591003,402.299561 
	C714.461426,403.729340 714.094849,405.091827 714.173889,406.621399 
	C714.540833,413.719971 713.757263,420.435455 709.106079,426.450012 
	C703.964050,433.099091 704.559204,441.335968 704.857544,449.069550 
	C705.007507,452.958282 709.327148,454.554657 712.773926,455.882080 
	C716.750671,457.413605 717.507019,460.332275 716.352966,463.944672 
	C715.186523,467.595917 710.752747,469.985901 707.533630,468.972748 
	C702.174683,467.286011 697.317322,470.266418 696.233765,476.212646 
	C692.395752,475.469391 689.798767,477.159973 687.816528,480.526794 
	C685.335205,484.741119 681.236389,484.889740 677.444092,483.015137 
	C674.255859,481.439148 671.314453,480.798798 667.877869,481.565125 
	C666.483276,481.876129 664.704956,481.972290 663.517517,481.359558 
	C661.655579,480.398712 659.661072,479.044708 659.219177,476.768616 
	C658.726868,474.232849 660.998657,473.341705 662.679565,472.447418 
	C670.187500,468.452850 674.590210,461.863708 677.927795,454.323517 
	C674.607544,458.004517 672.145813,462.426392 668.238770,465.603577 
	C663.434692,469.510223 658.177979,471.719543 651.977905,473.171997 
	C645.771240,474.626007 640.180664,472.918365 634.326904,472.887360 
	C629.715881,472.862946 628.751648,470.924072 631.101440,466.931976 
	C632.255798,464.970856 632.895752,463.167847 632.246948,460.826202 
	C631.386353,457.720581 632.688477,455.438599 635.455933,453.711761 
	C641.121460,450.176483 641.070740,449.948242 635.680664,446.414215 
	C635.314819,446.174377 634.964355,445.607605 634.949646,445.181091 
	C634.705505,438.074463 629.520325,431.649475 632.076843,424.154938 
	C633.337219,420.460052 633.329529,416.840118 632.302673,412.959686 
	C631.824951,411.154327 632.247925,408.291290 632.821838,406.758087 
	C634.157837,403.189453 632.226074,401.410889 630.266052,400.048492 
	C624.896790,396.316406 619.861816,392.087952 615.500549,387.394897 
	C609.965149,381.438263 602.568237,380.372101 596.260803,381.476379 
	C583.276794,383.749603 570.630798,388.294617 563.954407,401.390808 
	C560.643250,407.885895 556.671692,413.482544 550.264282,417.443298 
	C546.817688,419.573853 544.034180,422.880981 543.794495,427.605774 
	C543.581055,431.812134 540.987305,434.304199 536.872192,434.940277 
	C533.755737,435.421936 530.716553,436.564545 529.088379,439.006287 
	C526.375427,443.074860 522.824097,442.711578 519.155701,441.789825 
	C516.433167,441.105774 513.828491,440.971252 511.319305,441.973785 
	C506.267944,443.992065 501.196472,443.531708 496.089813,442.512848 
	C491.113770,441.520081 486.116486,442.080933 481.136230,442.262726 
	C474.695496,442.497864 471.196777,449.308105 470.076324,456.422913 
	C469.485352,460.175262 469.304565,464.007263 469.174194,467.811401 
	C469.095520,470.107300 467.704834,470.614685 465.947449,470.783356 
	C462.935028,471.072540 459.970459,470.866272 457.185760,469.552734 
	C458.235321,462.209473 454.839813,460.481903 446.033447,463.834198 
	C445.190643,466.082611 448.071442,467.170563 447.753296,469.525146 
	C443.452881,472.351288 437.975189,472.475128 431.674927,474.571655 
	C436.758667,476.903778 441.125641,475.314880 444.630005,477.833710 
	C444.497894,481.198059 442.509888,483.430206 439.758698,484.680939 
	C432.871796,487.811768 429.007690,493.222473 426.751160,500.212006 
	C425.422638,504.327026 418.364502,508.194580 413.192719,507.625000 
	C407.136139,506.958038 401.355042,508.591095 395.452911,509.054932 
	C388.462158,509.604248 381.663300,511.036224 374.768677,511.986053 
	C373.473602,512.164429 371.754272,512.232300 371.032166,513.054810 
	C368.682922,515.730713 366.697388,515.249695 363.690399,513.892273 
	C360.183258,512.309021 357.354675,515.092102 355.115845,517.557983 
	C351.973236,521.019226 350.953094,525.674500 348.472382,529.647766 
	C350.783325,532.149658 357.619904,530.769043 355.213379,535.765747 
	C353.389801,539.552063 348.890076,536.632019 345.636719,535.446167 
	C344.476562,536.032593 344.946930,538.210327 342.886902,538.074829 
	C340.974030,536.242859 342.167206,533.758667 341.810242,531.576477 
	C341.536713,529.904236 341.355560,528.040161 339.279846,527.787048 
	C337.565399,527.578003 337.229492,529.175110 336.852753,530.453918 
	C336.145752,532.853760 335.004456,533.341736 332.401001,532.548523 
	C328.317017,531.304321 326.111572,533.142456 327.613220,536.178955 
	C329.119629,539.225098 327.492004,540.350586 325.607361,541.874634 
	C323.817139,543.322449 322.317474,543.219238 320.887543,541.477173 
	C319.373596,539.632874 316.805603,538.094971 319.037201,535.138977 
	C319.434479,534.612671 319.719696,534.001831 319.439941,534.476501 
	C315.023651,521.012817 309.276001,509.172729 296.231903,501.679779 
	C301.718170,499.659668 301.624146,496.841614 299.061707,493.873322 
	C296.855652,491.317932 297.249146,487.887268 296.830353,485.232361 
	C295.100586,474.266510 289.402161,464.563812 287.788086,453.588654 
	C286.755310,446.565826 287.022797,440.477356 292.114838,435.009033 
	C295.027252,431.881409 295.972046,427.588531 296.680511,423.515472 
	C298.078064,415.480530 301.309509,408.241272 305.424164,401.337128 
	C307.382507,398.051117 308.421448,394.661713 307.659393,390.858002 
	C307.084686,387.989349 307.326019,385.031555 308.307465,382.466644 
	C312.090637,372.579773 310.545074,362.841522 308.060303,353.089081 
	C306.703064,347.762054 307.024628,342.532837 308.371033,337.282745 
	C309.472321,332.988647 309.174896,329.481171 304.124176,327.647766 
	C300.494568,326.330231 300.159973,323.160126 302.056427,320.232819 
	C306.031372,314.097198 304.305756,308.519867 301.032745,302.907684 
	C299.114868,299.619110 297.128387,296.451019 296.026093,292.651398 
	C293.779694,284.908020 297.886871,279.700287 302.276093,274.433014 
	C303.235168,273.282104 304.343567,272.247772 305.235168,271.049591 
	C315.176880,257.689362 317.334076,243.841080 308.185394,229.051529 
	C305.571167,224.825439 303.951141,219.987167 301.367279,215.738510 
	C299.537262,212.729401 297.803070,209.314636 293.621338,208.484146 
	C291.852753,208.132919 291.148956,206.290359 290.939362,204.581238 
	C289.981873,196.773361 287.711609,189.278870 285.619537,181.738998 
	C284.322052,177.063004 284.476807,172.515625 286.873444,168.166702 
	C287.272522,167.442596 287.693665,166.649994 287.789001,165.851364 
	C289.159637,154.371063 296.683411,146.989624 304.082733,138.930023 
	C309.956818,132.531754 314.751038,124.481491 313.180481,114.521568 
	C312.559540,110.583672 311.955627,106.410416 316.026459,103.083824 
	C317.619598,101.781944 317.643982,98.560318 318.359955,96.285721 
	C320.723846,95.705467 321.426147,97.337784 322.321106,98.724838 
	C323.902618,101.176025 324.928925,104.170883 329.052948,103.238800 
	C331.060181,102.785149 330.682434,106.455971 333.449768,106.511597 
	C337.752899,106.598083 341.226990,105.723976 344.133118,102.379684 
	C346.413239,99.755806 348.916870,96.814087 353.034393,98.437035 
	C356.799133,99.920952 358.665131,103.119408 359.019714,107.001015 
	C359.525360,112.536461 362.375061,116.337624 367.179749,118.725098 
	C376.243042,123.228676 384.949463,126.779610 395.368683,120.864174 
	C403.319092,116.350395 412.571777,114.564453 421.886475,117.945229 
	C432.178436,121.680695 441.525787,119.443794 450.311066,113.494438 
	C451.964142,112.374962 453.696259,111.360825 455.447937,110.400246 
	C461.559204,107.048988 465.555542,107.203850 470.380554,112.106087 
	C477.329437,119.166183 485.299805,119.470161 493.868042,116.515732 
	C498.443512,114.938065 502.974518,114.794098 507.654572,115.426666 
	C512.804016,116.122681 517.954407,116.328239 523.034363,114.937492 
	C528.726990,113.379051 534.714600,113.177246 539.529724,116.347473 
	C546.331421,120.825668 553.270874,118.942551 560.156616,118.327843 
	C569.506592,117.493164 577.753540,113.864594 584.659607,107.173073 
	C590.219360,101.786018 597.301941,98.584595 604.064026,94.981514 
	C610.121399,91.753922 611.168762,88.964043 609.710205,82.517906 
	C606.839661,69.831032 610.669006,59.953308 620.771606,52.769127 
	C623.673584,50.705406 624.217896,47.583916 623.490112,44.815399 
	C622.683411,41.746834 624.666992,36.921787 619.200928,36.050594 
	C619.840820,34.089420 617.328430,32.398830 619.299255,30.039743 
	C624.849915,23.395546 623.518738,13.022313 614.021118,9.244364 
	C610.293091,7.761440 609.617249,3.448049 606.242859,1.229383 
	C678.687561,1.000000 751.375122,1.000000 824.531372,1.000000 
M569.726624,262.802704 
	C573.780457,261.989380 577.687866,260.734375 581.936462,260.566254 
	C596.404907,259.993744 610.512939,261.051056 623.719666,267.699066 
	C627.145630,269.423615 628.678406,268.200348 628.650024,264.462494 
	C628.599365,257.799011 628.566528,251.133514 628.680664,244.471497 
	C628.723755,241.959076 627.730713,240.347443 625.520264,239.359329 
	C623.249451,238.344254 621.044434,237.128448 618.694336,236.352814 
	C603.460205,231.324783 587.915039,230.552444 571.997437,232.235245 
	C547.728088,234.801010 528.451904,245.682327 514.619751,265.684631 
	C506.443787,277.507629 502.489288,290.817963 507.808563,304.775055 
	C514.788879,323.090668 523.046082,340.916107 530.475586,359.066315 
	C532.635620,364.343231 536.072510,367.891754 541.012878,370.419159 
	C561.501282,380.900665 582.981384,382.176727 605.059937,377.246246 
	C615.426636,374.931183 625.309204,371.289612 634.311951,364.794128 
	C631.960266,362.157135 631.718384,359.395905 631.721313,356.496979 
	C631.738525,339.504730 631.686890,322.512360 631.655640,305.520050 
	C631.642151,298.170471 631.173950,297.515961 623.749451,297.475220 
	C608.934326,297.393890 594.117981,297.580170 579.302429,297.537231 
	C575.641174,297.526611 574.236023,299.091248 574.321777,302.667206 
	C574.473572,308.991455 574.485657,315.321869 574.405762,321.647797 
	C574.359619,325.296692 576.042358,326.738098 579.582520,326.678772 
	C585.078491,326.586670 590.578552,326.747375 596.074707,326.660370 
	C598.946350,326.614929 600.422913,327.606445 600.334595,330.689819 
	C600.215332,334.851196 600.207886,339.021820 600.341736,343.182373 
	C600.447815,346.480743 598.936279,348.089661 595.766113,348.504486 
	C592.148987,348.977783 588.561829,349.877838 584.935791,350.051208 
	C567.307312,350.893951 551.389282,346.472290 543.252808,329.098938 
	C537.996521,317.875366 537.312195,306.062164 540.314331,294.059753 
	C544.203613,278.510468 554.782776,269.115082 569.726624,262.802704 
M499.722504,297.626251 
	C497.985291,293.136627 496.249176,288.646545 494.510742,284.157410 
	C488.704590,269.164398 482.837982,254.194382 477.128632,239.164627 
	C475.496216,234.867355 472.990295,233.052612 468.146698,233.279678 
	C459.174622,233.700287 450.161469,233.605850 441.179535,233.304993 
	C436.539642,233.149582 434.090179,235.132919 432.622864,239.227692 
	C423.945679,263.443085 415.239960,287.648346 406.497009,311.840088 
	C399.377167,331.540710 392.179169,351.213104 385.044769,370.908539 
	C383.367157,375.539612 384.190216,377.385254 388.428070,377.475708 
	C395.909302,377.635468 403.399353,377.331024 410.885864,377.318024 
	C414.611633,377.311554 416.539398,375.436340 417.695679,372.013397 
	C420.249756,364.452576 423.129547,357.002106 425.716034,349.451630 
	C426.657593,346.703064 428.160614,345.572083 431.151093,345.593262 
	C447.801971,345.711273 464.454193,345.685272 481.105652,345.624298 
	C483.558044,345.615326 485.025055,346.301544 485.977417,348.777466 
	C489.018188,356.682861 492.540497,364.408630 495.407257,372.372772 
	C496.623016,375.750336 498.504272,377.318512 501.848175,377.352112 
	C509.999939,377.434021 518.152649,377.470093 526.304565,377.434357 
	C527.596802,377.428680 528.976013,377.152466 530.347839,375.132507 
	C520.368896,349.855591 510.199463,324.096222 499.722504,297.626251 
M327.736481,428.163635 
	C328.033508,423.391083 326.200806,418.096649 331.725555,414.408264 
	C327.252838,411.423859 327.111877,406.782501 326.247070,402.305634 
	C325.701050,402.797394 325.275269,403.003479 325.278046,403.203644 
	C325.478790,417.617859 324.575256,432.071625 326.546722,446.425842 
	C328.677979,461.943909 343.872162,475.518280 359.137360,476.083466 
	C357.666229,473.821075 355.330963,473.826660 353.411011,473.439728 
	C351.454529,473.045410 349.398010,473.014526 347.675720,471.926788 
	C343.734222,469.437469 340.231445,466.382111 336.619904,463.440155 
	C331.250122,459.065979 332.398651,451.947571 328.830292,446.871674 
	C327.620209,445.150391 327.699280,442.741913 327.724915,440.548859 
	C327.769745,436.717041 327.755585,432.884583 327.736481,428.163635 
M326.576538,191.292435 
	C328.026215,187.333740 326.676147,183.126007 327.625214,179.108185 
	C327.244629,183.303528 323.745270,187.111115 326.576538,191.292435 
z"/>
<path fill="#000000" opacity="1.000000" stroke="none" 
	d="
M101.531342,1.000000 
	C96.352173,3.238078 97.353317,8.557903 96.111519,13.034011 
	C93.429573,22.701117 92.899757,25.931963 94.566162,31.829319 
	C93.436028,33.493992 91.732658,31.929108 89.977959,32.749557 
	C94.472733,37.103210 94.111984,42.421700 93.149170,47.836887 
	C92.131035,53.563255 93.218506,59.541756 96.270142,63.751057 
	C99.010567,67.531082 103.430008,69.479721 103.376495,75.520584 
	C103.360069,77.375717 107.128777,80.622856 108.812088,83.410927 
	C111.992615,88.678864 117.465759,89.509117 122.497284,90.316063 
	C132.554123,91.928940 138.071976,103.879684 133.165497,112.604202 
	C130.604828,117.157478 130.749390,123.015106 128.489471,128.129150 
	C126.958870,131.592789 131.362823,132.268707 134.078476,132.686462 
	C137.472931,133.208649 140.497452,133.837173 142.337799,137.310516 
	C144.680664,141.732254 142.702591,144.972305 139.886307,147.992615 
	C137.732635,150.302338 135.365494,152.430099 132.963242,154.486893 
	C129.481293,157.468109 129.217804,160.530502 132.303619,163.930893 
	C132.969986,164.665176 133.471390,165.551041 134.034210,166.377014 
	C135.504059,168.534073 139.666031,169.372147 138.930359,172.170792 
	C137.902542,176.080811 137.436722,180.409775 134.688568,183.745026 
	C132.085403,186.904282 131.087906,191.220322 127.076538,193.445358 
	C125.537239,194.299164 125.948112,196.546021 128.113983,196.454758 
	C133.055603,196.246521 132.179733,199.454727 132.396957,202.321243 
	C128.958633,203.279343 129.177658,199.658646 127.299179,198.918427 
	C120.649193,200.928314 121.580513,201.839630 121.855148,208.367447 
	C122.141228,215.167053 128.091919,221.470627 123.357391,228.790115 
	C120.943260,232.522293 118.726852,234.103119 114.706413,232.206238 
	C113.408768,231.593979 111.964981,230.784760 111.216629,232.287628 
	C108.878990,236.982147 104.792213,240.877274 104.760254,246.665512 
	C104.746056,249.236862 105.178986,250.925171 108.313225,250.133759 
	C108.248039,252.380005 105.454086,252.491470 105.852646,254.822144 
	C106.941193,256.212219 107.901115,253.693390 109.387520,254.478317 
	C108.877670,256.597198 109.369492,258.828003 110.072113,261.095612 
	C107.048820,263.338135 104.532623,263.510040 102.283226,260.325378 
	C100.622940,257.974792 101.433479,254.690826 98.686089,251.837173 
	C97.723434,257.968292 91.425331,261.861359 94.117889,268.653412 
	C94.270805,269.039154 94.135818,269.713837 93.875618,270.058136 
	C92.781281,271.506256 89.347252,271.938568 90.775299,274.361145 
	C92.786354,277.772766 92.784843,281.972961 95.441643,285.020844 
	C97.792870,287.718140 100.318230,288.201843 103.127647,285.703583 
	C103.113411,282.301758 99.298180,284.313080 98.357491,282.121826 
	C97.850563,280.484833 99.298653,279.564148 100.031990,278.318024 
	C100.771996,277.060608 101.352531,275.709381 102.122971,274.157440 
	C105.449883,275.504639 107.723381,277.384125 107.944832,281.009827 
	C110.777229,279.566376 107.576859,276.168304 110.738670,274.742126 
	C112.079338,277.898376 110.851891,280.887939 110.546234,283.822205 
	C109.980362,289.254333 109.409348,294.153564 115.797211,297.341797 
	C120.595795,299.736755 122.832138,307.905365 121.160049,313.344818 
	C120.333138,316.034882 119.693512,318.265137 122.070915,320.555145 
	C123.292458,321.731750 123.214287,323.651215 122.840439,325.318085 
	C122.525719,326.721283 121.687950,327.817352 120.091019,327.703918 
	C118.523293,327.592590 118.500084,326.352142 118.462265,325.113831 
	C118.355309,321.611572 116.355164,319.077332 114.156464,316.336334 
	C112.200119,317.879242 112.445847,320.551758 110.225525,321.573700 
	C108.660324,322.294098 107.836235,323.978241 108.438309,325.821106 
	C109.145126,327.984589 110.851509,328.875275 113.054695,328.956146 
	C115.148239,329.032959 117.540749,328.508881 118.329758,331.432617 
	C112.161064,332.683319 108.180740,341.078339 109.460663,347.693512 
	C110.633659,353.756104 112.214882,359.574677 114.261421,365.377533 
	C115.005348,367.486908 113.696411,370.250488 113.657219,372.720856 
	C113.583916,377.340393 112.211594,382.734070 119.197044,383.505768 
	C119.284561,385.206604 118.395012,385.694733 117.360855,385.813965 
	C113.931267,386.209290 113.292320,388.560272 113.936638,391.231476 
	C114.893463,395.198334 115.144585,399.034180 113.664284,402.900055 
	C113.224686,404.048065 113.077606,405.538879 114.116959,406.145905 
	C117.280624,407.993744 115.859985,410.634033 115.371407,413.168274 
	C116.281219,413.646545 116.960663,414.202881 117.726074,414.373444 
	C122.327888,415.398987 123.548759,418.161041 122.169418,422.477692 
	C121.665352,424.055145 121.302353,425.706635 121.119743,427.351501 
	C120.803001,430.204712 121.130295,430.508545 124.458580,431.274872 
	C124.494743,436.525055 119.891441,440.926636 121.364723,446.411652 
	C123.085838,447.113068 123.212288,444.151825 125.504761,445.660248 
	C126.196068,449.564362 122.914848,452.792694 122.017380,456.618286 
	C121.360703,459.417450 119.446167,462.523743 124.537170,463.513977 
	C122.484825,469.302032 121.380013,475.272430 120.829704,481.350647 
	C120.784798,481.846619 120.432411,482.491974 120.632904,482.806854 
	C124.597420,489.033264 118.478287,496.489410 123.070389,502.612640 
	C118.238754,509.788879 124.708443,519.936523 116.471466,526.516968 
	C113.742462,528.697144 113.799637,533.621460 116.239120,536.160706 
	C120.063934,540.141907 120.627518,544.158691 121.143631,549.499512 
	C121.877983,557.098694 121.289543,565.087219 124.559464,572.491943 
	C125.805954,575.314636 125.419182,578.858459 125.760529,581.927795 
	C123.123230,583.019409 123.325592,580.205505 121.826195,580.040283 
	C121.092621,581.334412 121.493507,582.530334 121.952332,583.797607 
	C123.133682,587.060608 122.323654,588.468689 118.775917,586.908447 
	C116.196922,585.774231 115.849052,587.536926 114.187256,589.070984 
	C108.340073,594.468628 109.328400,600.677795 109.805199,607.286743 
	C110.107536,611.477417 107.195351,614.614624 103.911026,617.675964 
	C110.019638,621.698486 104.901382,627.329285 107.248436,632.016663 
	C109.907906,631.423462 110.345680,633.737305 110.738602,635.911926 
	C111.027817,637.512695 110.470238,639.435303 108.842873,639.463562 
	C106.208191,639.509277 103.230484,640.233948 101.171379,637.318909 
	C99.675041,635.200623 100.515083,631.854614 97.597290,630.555786 
	C95.252419,631.222900 94.778297,633.230469 94.954224,634.945496 
	C95.394943,639.241821 93.979538,643.637024 95.958221,647.901428 
	C96.551262,649.179626 97.442909,651.275574 95.058975,652.685364 
	C93.068703,653.862183 93.776657,656.170837 93.981224,658.110962 
	C88.681168,657.559021 75.391541,665.449524 73.291878,670.290466 
	C72.906769,671.178406 73.071594,671.891052 73.839104,672.784912 
	C49.706150,673.000000 25.412298,673.000000 1.000000,673.000000 
	C1.000000,607.645813 1.000000,542.291565 1.209365,476.672913 
	C2.373279,477.526031 3.850382,479.306610 4.792276,477.311401 
	C6.179344,474.373199 4.539911,471.053864 4.351706,467.899567 
	C4.242301,466.065979 2.489649,466.672546 1.375636,467.683014 
	C1.254362,467.793030 1.125400,467.894562 1.000002,468.000000 
	C1.000000,463.975464 1.000000,459.950897 1.373123,455.425049 
	C4.334565,454.645569 5.583775,452.777557 4.544020,450.791382 
	C3.365571,448.540283 6.103270,444.113068 1.000000,444.000000 
	C1.000000,296.452179 1.000000,148.904327 1.000000,1.000000 
	C34.353382,1.000000 67.708031,1.000000 101.531342,1.000000 
M49.675449,79.855675 
	C47.648800,78.968559 47.011875,77.580780 46.151154,75.327950 
	C44.275070,70.417526 43.555107,64.469467 37.465588,61.811123 
	C31.998972,59.424698 26.788801,56.344055 24.822187,49.935387 
	C24.470345,48.788822 23.473490,47.554695 21.781492,48.082153 
	C17.958780,54.244129 18.384462,61.398956 17.259033,68.111275 
	C16.162943,74.648628 16.381081,81.398087 19.450729,87.630455 
	C20.670547,90.107071 21.186182,92.569145 20.322123,95.322311 
	C19.865822,96.776253 20.026430,98.903000 21.565969,99.258232 
	C25.582138,100.184914 27.082085,104.210861 30.431959,105.444618 
	C30.723059,109.439934 27.879492,110.918434 25.626238,112.822617 
	C15.379283,121.482155 13.836739,134.392838 21.811335,144.628601 
	C26.082119,150.110352 25.377882,153.628937 19.414164,156.605606 
	C15.472494,158.573013 12.351106,165.902466 15.404852,168.811096 
	C21.588869,174.701263 20.839306,180.184616 17.072292,186.514542 
	C16.588985,187.326675 16.634737,188.449997 16.418789,189.425476 
	C14.779361,196.830963 17.940105,200.812241 25.255188,200.550430 
	C31.616030,200.322754 33.821789,202.724731 32.493187,208.688065 
	C31.999275,210.904922 32.723095,212.633179 33.978275,214.239273 
	C35.093365,215.666092 36.341740,217.565475 38.377541,216.881073 
	C40.578289,216.141205 40.323441,213.578735 39.816544,212.099167 
	C38.508999,208.282623 39.610775,205.065277 41.335407,201.846527 
	C42.928745,198.872849 42.005283,196.383759 40.731270,193.419601 
	C38.242161,187.628387 35.206009,181.629883 39.928898,175.283112 
	C42.197613,172.234329 43.111294,168.404663 45.158646,165.126343 
	C48.150822,160.335159 46.996197,157.822021 41.612450,155.968033 
	C40.414288,155.555420 39.744240,154.819397 38.984108,153.885162 
	C33.522053,147.172043 34.250435,139.526810 37.805843,132.954056 
	C41.296619,126.500771 40.686008,120.103401 39.970417,113.832954 
	C39.173603,106.850838 40.596794,101.553627 46.020832,97.186440 
	C51.518940,92.759605 52.838531,87.173218 49.675449,79.855675 
M40.855888,479.151184 
	C41.106853,474.856171 42.570438,470.700653 41.956951,466.286652 
	C40.725056,457.423157 41.125824,448.401276 40.678856,439.519684 
	C40.090576,427.830017 36.685108,415.869995 40.554691,404.088074 
	C40.750885,403.490692 40.651394,402.755920 40.549042,402.107300 
	C39.888554,397.921967 37.299892,396.229370 33.179428,397.384705 
	C28.909760,398.581879 24.590256,398.054626 20.283159,397.899689 
	C19.134562,397.858337 17.659386,397.173920 16.996138,398.257782 
	C13.824007,403.441681 6.687981,406.906616 9.978719,415.179047 
	C10.988819,415.921021 13.718473,414.656128 14.069155,417.723022 
	C15.010181,425.952667 17.225111,434.185486 16.996992,442.363007 
	C16.699949,453.011292 16.600965,463.538544 18.332001,474.051331 
	C18.861629,477.267792 18.199089,479.959442 15.313134,481.893036 
	C13.442929,483.146088 12.533527,485.060455 13.734998,487.071899 
	C15.465382,489.968872 15.223050,494.034637 19.014179,495.760468 
	C20.431843,496.405792 20.865976,498.074432 19.535664,499.055786 
	C13.863329,503.240112 13.846702,507.308167 19.395945,511.540741 
	C19.642202,511.728607 19.940138,512.133850 19.894333,512.377747 
	C18.803249,518.186401 23.665247,519.267090 27.092451,521.462708 
	C32.174625,524.718384 36.457043,522.862061 36.872509,516.752014 
	C37.521210,507.211975 39.299641,497.702087 38.093132,488.075897 
	C37.950050,486.934296 37.728340,485.166809 38.865795,484.915497 
	C42.238586,484.170227 40.937038,481.879761 40.855888,479.151184 
M18.430103,342.197235 
	C20.541433,347.031586 21.605423,351.883881 19.129147,356.970398 
	C17.730570,359.843201 17.789001,362.866577 19.468300,365.576324 
	C20.764229,367.667389 21.550655,369.450287 20.448368,372.009949 
	C19.393385,374.459778 21.384863,376.055603 23.233498,377.241211 
	C24.970638,378.355316 26.668444,378.052765 28.191401,376.532928 
	C29.112000,375.614197 30.127478,374.653107 31.289463,374.136261 
	C38.290516,371.022430 43.394341,361.953766 42.284252,354.306763 
	C41.790802,350.907532 41.736969,346.979034 44.076103,344.835144 
	C48.442703,340.833069 46.779831,335.914917 47.319187,331.382385 
	C47.577427,329.212189 46.056377,327.324768 43.432667,326.958282 
	C39.585911,326.420959 38.040710,322.907501 38.745018,320.392700 
	C40.317375,314.778473 39.058212,308.693054 41.946911,303.386963 
	C42.664310,302.069244 43.054638,300.441925 44.892864,300.423431 
	C46.633175,300.405975 46.871033,301.931610 47.226402,303.202454 
	C47.680630,304.826782 48.453197,306.036804 50.383781,305.400665 
	C52.019089,304.861908 52.730885,303.496521 52.611557,301.883820 
	C52.414318,299.217987 51.597786,296.709595 50.172840,294.342377 
	C48.770748,294.404907 47.879089,296.937073 46.050762,294.819366 
	C43.894684,292.322052 41.100979,290.380371 38.900459,287.915100 
	C34.807098,283.329193 33.397678,283.047516 27.993147,286.359650 
	C26.869970,287.047974 25.400555,287.262299 24.430401,288.092163 
	C21.629480,290.488068 16.783209,290.458893 15.472014,294.219330 
	C13.482431,299.925323 13.170055,306.072571 14.989667,311.897278 
	C16.186119,315.727234 16.243326,319.293152 15.560550,323.138641 
	C14.435447,329.475464 15.131665,335.663574 18.430103,342.197235 
M67.479218,482.770050 
	C72.771034,481.698730 77.760841,481.121704 81.648392,475.904724 
	C87.422340,468.156250 85.571251,459.177856 87.257927,450.866150 
	C88.153053,446.455139 88.609657,442.527771 92.327583,439.374969 
	C85.285728,433.193237 94.235855,432.583435 96.122971,429.270203 
	C95.112915,427.724091 94.049927,426.623749 92.189453,426.720673 
	C90.907829,427.577484 90.958252,429.598816 89.202026,429.898407 
	C87.959900,429.365875 87.726440,428.097870 88.311752,427.398651 
	C91.560669,423.517731 88.331017,421.018707 86.395599,418.442261 
	C84.321632,415.681366 77.955269,415.004364 74.892250,416.914215 
	C70.801674,419.464752 73.004387,422.151794 74.701698,424.878845 
	C75.127556,425.563049 75.125381,426.503265 75.506569,427.227631 
	C76.597542,429.300720 78.150826,431.373749 75.770012,433.497742 
	C73.521881,435.503418 70.883667,435.290253 68.247887,434.376129 
	C66.497932,433.769257 65.152321,431.601532 62.383041,433.258331 
	C63.289639,438.614929 61.473686,443.343262 57.891243,447.665375 
	C56.616413,449.203461 56.631718,451.646179 56.253162,453.778473 
	C55.507534,457.978333 58.324966,462.078156 56.587719,466.003937 
	C54.165138,471.478485 58.616493,476.762543 55.386120,482.259216 
	C62.402668,481.309479 56.709179,474.942810 60.519806,472.881287 
	C63.340168,476.118347 60.199013,482.435516 67.479218,482.770050 
M51.862236,580.715576 
	C49.718880,577.362793 45.866848,574.249390 49.034565,569.776367 
	C51.399166,566.437439 51.079231,562.881775 51.009300,559.269104 
	C50.955803,556.505615 49.790634,554.721252 46.628387,555.571899 
	C44.023777,556.272583 42.045231,555.264832 41.686836,552.815002 
	C40.774261,546.577087 36.276115,542.311646 33.775917,537.051025 
	C31.037983,531.290161 28.301567,531.260498 23.826576,534.013306 
	C23.689663,534.097534 23.504080,534.098083 23.353968,534.165894 
	C19.912838,535.720215 17.716101,537.458130 17.292240,542.103333 
	C16.622601,549.442139 16.882740,556.988892 14.371716,564.150452 
	C13.477917,566.699646 13.409417,569.792847 16.280546,571.234131 
	C19.910698,573.056458 22.564129,576.515076 26.957575,577.131409 
	C28.768459,577.385437 30.736259,578.493530 31.264370,580.882568 
	C30.436462,583.017395 26.755533,583.850098 28.130365,587.737732 
	C31.541502,584.378967 34.570194,584.971924 37.492352,587.798706 
	C38.376663,588.654175 39.652328,589.087158 40.699558,588.324158 
	C43.298634,586.430603 46.082249,587.565308 48.731060,587.834595 
	C50.024952,585.620117 51.728123,583.921997 51.862236,580.715576 
M57.839550,266.437714 
	C59.732815,262.995697 55.717072,259.596466 58.256081,256.198822 
	C53.277756,255.599640 50.548653,251.167648 45.983734,250.719772 
	C43.682049,253.250565 48.389236,256.678497 44.996021,259.201263 
	C41.465267,254.466782 40.767200,249.310593 40.909470,243.908325 
	C40.987225,240.956009 40.456543,238.168228 37.360630,236.825455 
	C34.410980,235.546097 31.972458,236.423416 29.678843,238.622604 
	C26.411497,241.755371 22.055094,243.118744 18.022514,244.856842 
	C15.944252,245.752625 15.131732,246.519135 15.350019,248.755859 
	C16.026865,255.691208 16.389597,262.643707 16.032005,269.621307 
	C15.874693,272.690918 17.629061,275.015625 19.586439,277.063049 
	C21.245125,278.798035 24.257803,276.976349 25.684605,278.475616 
	C28.980406,281.938782 32.339176,281.176697 35.537575,279.036163 
	C38.644833,276.956696 42.298527,276.410431 45.478348,274.679199 
	C45.846050,274.479034 46.032795,273.872986 46.216827,273.419952 
	C48.940235,266.715393 50.251347,265.901398 57.839550,266.437714 
M78.101334,304.409393 
	C76.855843,304.000122 75.586533,303.651306 74.368843,303.171478 
	C68.007652,300.664856 64.043221,302.783722 62.801296,309.479736 
	C62.439392,311.431030 62.229641,313.427032 62.151836,315.410461 
	C62.048489,318.045074 61.489216,320.134430 58.276760,319.623474 
	C58.398907,321.949860 58.500763,323.889771 58.626945,326.292999 
	C61.875313,325.389160 64.837570,328.695557 67.784348,326.920959 
	C71.939842,324.418457 75.280350,325.818329 78.898354,327.813110 
	C80.723427,328.819366 82.908936,330.323364 84.913506,328.741852 
	C86.812897,327.243408 86.090210,324.732117 85.915665,322.626160 
	C85.823242,321.510986 85.482994,320.251160 84.826950,319.377930 
	C82.562958,316.364319 82.943298,313.598969 85.026840,310.700165 
	C86.776413,308.265961 86.758087,306.044098 83.652168,304.643097 
	C82.427795,304.090790 82.407776,302.211334 80.832710,302.088013 
	C80.102142,302.815277 79.405663,303.508636 78.101334,304.409393 
M58.883160,333.228119 
	C58.523808,332.530457 58.164455,331.832794 57.742462,331.013550 
	C56.939987,332.322449 56.953171,334.146637 54.874672,334.093628 
	C52.206573,334.025574 50.439339,335.136383 50.080738,338.017059 
	C49.752472,340.654083 50.570171,342.082611 53.222179,343.333496 
	C55.669571,344.487854 56.854946,347.542786 57.429878,350.212616 
	C57.929005,352.530457 55.019341,351.763092 53.646461,353.116699 
	C55.912655,353.954926 55.338661,357.962891 59.017792,357.226379 
	C57.153526,352.992340 58.559681,345.494354 61.727932,342.998566 
	C63.657211,345.544922 62.690357,349.205353 64.874771,351.631165 
	C71.909561,344.741394 72.396103,337.912872 66.198090,333.834961 
	C64.467049,334.252319 64.549713,336.768280 62.525051,336.994873 
	C60.613186,336.817108 60.210506,334.950562 58.883160,333.228119 
M19.185671,220.083633 
	C19.796932,221.185837 19.881592,222.728149 21.548767,222.945679 
	C28.064779,218.303482 28.771637,215.586807 24.849821,211.013199 
	C23.037191,208.899323 20.848753,208.529755 18.633801,209.711945 
	C16.314180,210.949997 15.714856,213.342072 16.479639,215.746964 
	C16.910347,217.101334 18.057405,218.227890 19.185671,220.083633 
M55.389053,529.864563 
	C58.114452,532.009216 55.504642,536.066895 58.891655,538.239746 
	C58.755344,530.890442 59.278069,523.622192 59.980385,516.466919 
	C56.520115,515.997559 56.169662,517.669128 55.994728,519.695007 
	C55.710445,522.987244 55.276196,526.266479 55.389053,529.864563 
M91.579666,419.566193 
	C93.883026,424.522705 97.494987,425.520905 103.215744,422.781860 
	C102.405746,415.922821 98.388062,414.557770 91.579666,419.566193 
M77.848114,350.827972 
	C75.989586,350.800812 74.877846,348.622009 72.787926,349.054901 
	C70.820953,352.163452 73.961548,353.372467 75.056854,355.347931 
	C76.185356,357.383331 77.393425,358.987946 80.112602,358.198914 
	C81.710121,357.735352 82.906273,356.995483 82.787727,355.158081 
	C82.620880,352.572083 80.911140,351.436584 77.848114,350.827972 
M52.007328,203.428482 
	C51.528645,201.746353 51.628292,199.722321 49.464798,199.004974 
	C45.159622,204.906952 45.362442,207.560791 50.450230,212.053589 
	C55.087055,210.280151 53.482311,207.168930 52.007328,203.428482 
M99.419685,452.135101 
	C99.580513,450.686493 100.051643,449.099213 97.218254,448.501740 
	C96.161674,451.305786 94.423759,453.903687 91.291206,455.602783 
	C93.404503,457.934540 95.100418,460.027557 97.773895,461.060822 
	C100.132431,458.457275 98.919975,455.506104 99.419685,452.135101 
M100.827606,370.126526 
	C100.389519,367.487244 102.156647,364.388000 99.374146,361.928101 
	C95.381699,369.479706 95.954330,374.159943 100.798866,375.266785 
	C101.760788,373.834961 100.705261,372.382904 100.827606,370.126526 
M113.506813,309.775421 
	C114.159142,311.835083 115.726898,312.276855 117.415878,311.482513 
	C119.343246,310.576050 119.007065,308.617310 118.382210,307.127716 
	C117.541969,305.124573 117.011124,301.882629 114.055656,302.670074 
	C110.820305,303.532074 113.207191,306.211243 113.326607,308.120087 
	C113.347229,308.449646 113.393097,308.777618 113.506813,309.775421 
M100.232063,379.445068 
	C96.043953,382.271423 97.486031,386.219238 97.349541,390.661957 
	C101.075119,388.721710 100.109421,385.080200 102.260315,383.230713 
	C104.764832,381.077148 102.695549,380.311096 100.232063,379.445068 
M115.553276,480.062012 
	C115.592911,478.643372 115.979645,476.288574 113.752396,477.187622 
	C111.486153,478.102448 110.583748,480.876862 110.536636,483.336853 
	C110.508347,484.814148 112.234512,485.458344 113.528061,485.331665 
	C116.717987,485.019379 115.383873,482.504517 115.553276,480.062012 
M47.989853,242.730530 
	C48.365070,244.071548 48.018497,245.838211 50.018890,246.237656 
	C52.877697,242.339478 52.399250,240.225464 47.907242,236.856308 
	C45.484608,238.549011 47.169704,240.307327 47.989853,242.730530 
M49.839294,354.427582 
	C49.701958,351.454834 50.831814,348.195923 48.070923,345.634216 
	C44.555466,347.273926 45.812561,349.736694 46.566502,352.014771 
	C47.496239,354.824036 47.613415,354.874481 49.839294,354.427582 
M52.349842,227.788361 
	C49.610176,222.169418 49.610176,222.169418 46.540031,223.322052 
	C49.962120,225.129944 47.524117,232.797180 54.669189,230.852905 
	C54.677265,229.056931 53.376034,228.985901 52.349842,227.788361 
M113.613686,438.144501 
	C114.159966,439.678253 115.051674,440.826508 116.866508,440.344238 
	C118.158707,440.000854 118.515045,438.808319 118.575272,437.619568 
	C118.687988,435.394501 117.953812,433.775757 115.444908,433.590240 
	C113.825684,434.466034 114.008698,436.111694 113.613686,438.144501 
M63.960583,424.726501 
	C65.420380,426.796539 66.426292,429.823792 70.534515,427.912933 
	C69.188324,425.750366 68.412025,423.857849 67.081573,422.513885 
	C64.964500,420.375275 63.503494,420.759735 63.960583,424.726501 
M51.862022,451.052277 
	C51.623482,449.121063 52.861763,446.910858 50.954536,445.104431 
	C48.424778,446.798370 49.305424,449.444305 48.591656,451.507629 
	C48.203926,452.628448 48.467445,454.042084 49.913651,454.194580 
	C51.411922,454.352570 51.580379,452.935730 51.862022,451.052277 
M100.559776,624.548828 
	C100.501648,618.472595 97.464600,621.682617 95.126022,622.626465 
	C96.959282,623.282837 97.153198,627.465759 100.559776,624.548828 
M57.599716,244.042572 
	C55.410305,246.393585 57.150387,248.222794 58.198505,250.547195 
	C61.420242,248.002197 61.920315,245.969833 57.599716,244.042572 
M57.662556,414.893219 
	C57.809528,414.955322 57.958424,415.070007 58.102921,415.064697 
	C58.246193,415.059448 58.446400,414.970428 58.516323,414.854584 
	C59.216629,413.694305 58.085625,412.599060 58.290932,411.591919 
	C58.564617,410.249451 59.999569,408.961731 57.959644,407.883575 
	C57.111431,407.435242 56.334930,407.732147 55.791492,408.428497 
	C54.720997,409.800201 55.141922,411.214539 55.896511,412.544525 
	C56.295528,413.247833 56.862827,413.855682 57.662556,414.893219 
M46.867119,478.737946 
	C48.432430,479.739380 49.940201,479.172333 51.457642,478.704437 
	C52.150661,476.828339 52.082642,474.958496 50.078960,474.594055 
	C47.701603,474.161652 47.372898,476.463684 46.867119,478.737946 
M58.720619,422.014923 
	C59.133808,421.155457 59.968716,420.210419 58.198818,419.859711 
	C56.739586,419.570496 55.322285,419.829376 54.841530,421.270264 
	C54.125240,423.417084 55.139400,424.959717 57.261486,426.148529 
	C57.736084,424.721100 58.099400,423.628387 58.720619,422.014923 
M57.664467,399.676514 
	C60.046913,397.727234 59.537991,394.389038 56.272717,391.756348 
	C55.108467,394.549896 57.702518,396.673279 57.664467,399.676514 
M55.163998,569.848511 
	C53.380413,572.878967 56.614277,573.559509 57.703255,575.266541 
	C58.263630,573.002930 61.200993,569.888611 55.163998,569.848511 
M95.893051,442.987183 
	C96.967331,444.298462 97.842575,446.444672 99.993523,444.681580 
	C101.009895,443.848419 100.458740,442.434509 99.655319,441.614075 
	C98.067299,439.992523 96.586143,439.916504 95.893051,442.987183 
M57.903259,84.593102 
	C57.729641,84.327240 57.575096,84.044411 57.366322,83.809837 
	C57.324558,83.762924 56.979664,83.858665 56.936920,83.958298 
	C55.796482,86.616325 55.460403,89.116791 58.208046,91.178276 
	C60.812988,88.819359 57.766083,87.093109 57.903259,84.593102 
M117.722099,454.411346 
	C117.489647,452.919434 117.328117,451.055664 115.176544,451.823364 
	C113.659828,452.364502 113.768524,454.042236 114.474983,455.231323 
	C115.470337,456.906647 116.695251,457.200073 117.722099,454.411346 
z"/>
<path fill="#000000" opacity="1.000000" stroke="none" 
	d="
M1025.000000,500.545898 
	C1022.856079,501.463104 1020.886047,502.223572 1019.296082,503.849548 
	C1017.532227,505.653320 1015.434021,506.298157 1013.173950,505.503632 
	C1011.372253,503.424774 1014.256409,500.537415 1011.209167,498.740875 
	C1007.528687,501.755859 1007.446838,506.852539 1008.570862,509.827271 
	C1010.165344,514.047058 1008.702332,517.057312 1007.732239,520.137817 
	C1008.138245,521.859924 1010.249512,521.012390 1010.289917,522.623108 
	C1010.313965,524.315735 1008.449768,524.934204 1008.102051,526.441101 
	C1008.773865,528.558533 1012.805664,528.513855 1011.618042,531.743042 
	C1010.869934,533.777222 1009.263062,531.352478 1008.181580,532.227173 
	C1008.278381,533.666260 1007.814453,535.565002 1008.557617,536.450500 
	C1015.803284,545.083374 1007.984253,553.031067 1007.520752,561.269836 
	C1007.403137,563.360962 1008.430115,564.395996 1009.499695,565.528259 
	C1012.947083,569.177673 1013.471375,573.035889 1010.777405,577.309937 
	C1009.684692,579.043579 1008.474670,581.068176 1010.226929,582.785339 
	C1013.180786,585.680115 1011.687988,588.861572 1010.649414,591.488220 
	C1009.126038,595.341003 1008.433044,598.523804 1012.580322,600.982544 
	C1011.178833,603.890625 1009.883118,606.387817 1008.755737,608.958801 
	C1006.489868,614.126282 1008.386414,617.405823 1014.008118,618.058228 
	C1015.316895,618.210083 1016.662720,618.010010 1017.989197,618.049866 
	C1019.446716,618.093567 1021.140320,617.684143 1022.048035,619.280273 
	C1022.928162,620.827942 1021.487488,621.637695 1020.745544,622.687378 
	C1020.176514,623.492249 1019.350586,624.508057 1019.450745,625.331299 
	C1020.244141,631.854370 1015.965454,635.254517 1011.600525,638.707031 
	C1009.390747,640.454895 1008.603333,642.757507 1008.573730,645.698792 
	C1008.515747,651.453918 1008.956116,657.280212 1007.380920,662.942261 
	C1002.308228,661.389832 1001.468750,659.939575 1003.261169,655.414551 
	C1003.647583,654.439148 1004.212097,653.575134 1003.422607,652.673767 
	C999.947754,648.706787 1002.087708,644.933411 1003.978882,641.042114 
	C1002.391663,639.832092 999.940674,643.068115 999.332275,640.453735 
	C998.685730,637.675293 997.524902,634.434021 999.601318,631.830933 
	C1002.013062,628.807556 1002.486023,626.709717 998.900879,624.051453 
	C996.415283,622.208435 997.804504,619.139832 998.738586,616.672729 
	C999.269836,615.269653 1000.180603,614.076538 999.011963,612.532410 
	C995.268982,607.586914 996.020081,602.691956 999.411011,597.938416 
	C1000.349060,596.623474 1001.216370,595.374268 999.684204,594.020569 
	C995.646362,590.453186 997.433167,586.796753 999.688782,583.377380 
	C1001.304810,580.927551 1002.434387,578.785767 1000.003540,576.283813 
	C999.667847,575.938416 999.207092,575.345947 999.301758,575.006592 
	C1000.668335,570.106873 1000.233398,565.636475 998.006104,560.857910 
	C997.255432,559.247314 1000.035156,556.114746 999.778625,553.042236 
	C999.572632,550.575500 999.671021,548.099426 998.954346,545.679077 
	C998.720276,544.888855 998.258240,543.736389 998.603516,543.269958 
	C1002.802795,537.596375 998.577332,532.509644 997.547546,527.243774 
	C997.094849,524.928833 996.563232,522.605469 996.974792,520.319031 
	C998.209229,513.460876 996.517883,506.550568 997.165527,499.888092 
	C997.547119,495.963226 997.433960,491.925995 998.095398,488.030548 
	C998.592041,485.106049 998.371399,482.269714 997.439514,479.694519 
	C995.395142,474.045135 995.112915,467.712158 996.614624,462.716003 
	C999.191650,454.141663 999.493591,445.684418 999.571350,437.033844 
	C999.588501,435.127197 1000.128540,433.454529 1000.856934,431.758423 
	C1001.677307,429.847870 1001.945557,428.363403 999.868347,426.567566 
	C997.316467,424.361420 999.213806,420.932159 999.079468,418.070984 
	C998.740112,410.843323 999.094299,403.575806 998.578125,396.366699 
	C998.303711,392.534485 997.923157,388.661835 998.815979,385.035797 
	C1000.374329,378.707306 998.623657,372.263550 1000.250244,365.833344 
	C1000.893250,363.291565 997.350403,359.257751 998.899658,356.112427 
	C1002.284302,349.240784 1000.321350,342.040131 999.393127,335.585846 
	C998.533752,329.611084 1000.677307,323.558960 998.234131,317.813782 
	C997.825317,316.852600 998.176514,315.568207 998.176514,314.494843 
	C1000.143127,313.800568 1000.511719,316.691193 1002.843140,315.639465 
	C1003.884766,313.029907 1005.553162,310.148102 1001.855286,307.527252 
	C1001.461792,307.248322 1000.826843,306.885315 1000.819031,306.549377 
	C1000.645813,299.052673 996.427551,291.884247 999.859009,284.015045 
	C1002.424133,278.132812 1000.091064,272.308472 997.252747,266.909821 
	C994.999207,262.623413 993.654907,258.052338 992.991211,253.298401 
	C992.818237,252.059586 993.172119,249.690948 993.677673,249.576233 
	C999.001648,248.368301 998.001892,243.791946 998.969788,240.227386 
	C998.148743,239.770447 997.319092,239.308716 996.375732,238.783676 
	C996.735840,238.203888 996.890076,237.643188 997.250305,237.428650 
	C998.976807,236.400574 1000.363770,234.916565 999.649658,232.964325 
	C997.971008,228.375107 1000.453064,223.692551 999.020569,219.147919 
	C998.711975,218.169022 998.763306,216.767395 999.705505,216.439270 
	C1003.305908,215.185379 1004.052124,213.467560 1001.467041,210.385651 
	C1000.890259,209.698013 1001.893982,208.313843 1002.793945,207.987396 
	C1008.358215,205.969208 1007.735413,201.212936 1007.921265,196.791077 
	C1000.427368,196.609238 998.417175,194.210495 998.855713,185.970459 
	C1000.048706,184.295410 1002.131714,186.082397 1003.561279,184.678925 
	C1003.561279,183.324570 1003.561279,181.848877 1003.561279,179.995346 
	C998.530701,179.576355 997.077881,176.471375 997.628479,171.838898 
	C998.157043,167.391296 997.043945,162.725357 999.958740,158.622192 
	C1001.421692,156.562668 1000.867310,154.086182 1000.003906,151.874435 
	C998.487488,147.990082 998.429688,143.680786 996.430237,139.939285 
	C996.137573,139.391602 995.885559,138.331833 996.165955,138.041382 
	C1000.930054,133.107681 996.151672,124.816315 1002.980286,120.412949 
	C1004.619202,122.556343 1006.254150,125.195641 1008.382263,127.347153 
	C1010.878601,129.870895 1009.340515,133.483307 1010.806641,135.947784 
	C1013.718567,136.906189 1014.556274,134.246323 1016.429443,133.669052 
	C1018.250549,133.642517 1018.083740,135.394913 1018.581665,136.871094 
	C1016.296692,139.605774 1014.869019,142.126785 1016.003845,145.344604 
	C1017.223083,148.801682 1015.563416,156.195267 1013.747681,159.322861 
	C1009.208191,167.141907 1007.194397,167.361511 1012.064453,174.907623 
	C1013.437134,177.034546 1013.456848,179.546555 1013.637573,182.085144 
	C1013.827393,184.751740 1013.582031,188.543777 1018.113220,188.328156 
	C1019.566223,188.258987 1020.780945,188.351593 1021.530212,189.735016 
	C1022.462280,191.456009 1021.279419,192.431320 1020.276733,193.612823 
	C1017.921204,196.388657 1017.055542,199.338089 1019.713196,202.431580 
	C1021.863831,202.089569 1023.938477,202.126282 1025.000000,200.000000 
	C1025.000000,202.700012 1025.000000,205.400024 1024.732178,208.504425 
	C1022.040222,209.242004 1021.168518,211.407867 1019.914368,212.992447 
	C1018.836975,214.353577 1018.649048,216.656006 1020.228821,217.289307 
	C1021.398499,217.758194 1023.656311,219.872574 1025.000000,217.000000 
	C1025.000000,219.370560 1025.000000,221.741104 1024.650024,224.626160 
	C1020.488953,226.937424 1017.656311,229.211212 1019.951477,234.468857 
	C1021.528381,233.035721 1023.585510,234.631332 1025.000000,233.000000 
	C1025.000000,235.370560 1025.000000,237.741104 1024.718018,240.483704 
	C1021.013245,241.225693 1017.908325,243.112488 1017.568665,246.204926 
	C1017.242554,249.173630 1016.105164,250.677002 1013.625854,251.738174 
	C1014.801697,253.663803 1016.368347,254.394775 1017.948914,255.174988 
	C1018.825867,254.086166 1018.872864,251.802856 1021.067444,253.178391 
	C1022.728210,254.219315 1022.698608,255.550842 1021.447632,256.880829 
	C1019.261230,259.205383 1018.455139,261.903900 1018.766174,265.088684 
	C1018.025452,265.553223 1017.557495,265.959381 1017.089478,266.365540 
	C1021.333008,270.689758 1017.142883,272.402344 1014.774536,275.264221 
	C1008.853577,282.419220 1007.568481,287.169464 1010.826721,293.783356 
	C1011.854248,295.869171 1013.515381,297.462189 1012.469177,300.084320 
	C1011.995605,301.271515 1012.808960,302.316925 1013.874329,303.003357 
	C1015.098938,303.792328 1016.246338,303.386078 1016.943176,302.365479 
	C1018.555359,300.004425 1020.260376,300.032043 1022.357849,301.678192 
	C1023.378845,302.479431 1024.201172,301.566925 1025.000000,301.000000 
	C1025.000000,303.700012 1025.000000,306.400024 1024.707764,309.432861 
	C1023.275757,309.342926 1021.806274,308.910217 1021.764099,310.645660 
	C1021.701721,313.208862 1021.442871,316.159790 1025.000000,317.000000 
	C1025.000000,317.750000 1025.000000,318.500000 1024.687256,319.556702 
	C1017.866943,321.343201 1017.417908,315.394379 1015.023560,311.734711 
	C1013.309692,313.244263 1011.475586,314.203125 1011.709717,316.374329 
	C1012.774414,318.349060 1015.600281,317.032196 1016.231201,319.292725 
	C1016.134277,321.234741 1014.660828,321.663055 1013.202332,322.062256 
	C1011.387207,322.559021 1010.494812,324.056061 1011.281616,325.447845 
	C1013.056885,328.588348 1011.619751,331.006500 1010.442200,333.775726 
	C1008.950562,337.283783 1007.585449,340.981445 1010.661621,344.532074 
	C1011.614380,345.631775 1011.069336,347.032257 1011.080017,348.349731 
	C1011.134338,355.056732 1012.787781,361.329742 1016.721863,366.870972 
	C1018.701355,369.658997 1019.476257,372.869232 1015.981628,374.425720 
	C1012.597900,375.932861 1010.344116,379.108459 1005.509338,379.782715 
	C1008.667297,381.572723 1008.506104,383.669098 1008.459290,386.007935 
	C1008.327759,392.568359 1007.445312,399.267700 1011.948303,405.111359 
	C1014.335083,408.208740 1018.174561,409.315399 1020.594238,412.272095 
	C1021.653870,413.566925 1023.561035,415.081024 1021.479370,416.292908 
	C1016.390320,419.255676 1017.167358,423.546082 1017.767700,427.858093 
	C1015.092041,425.784821 1012.780090,426.373352 1009.993652,427.929138 
	C1012.028748,431.285583 1016.033264,428.278259 1017.985168,432.139862 
	C1017.985168,429.918060 1017.985168,428.953857 1018.351807,427.958344 
	C1021.005676,427.915009 1023.723328,429.306152 1025.000000,426.000000 
	C1025.000000,427.714355 1025.000000,429.428711 1024.729492,431.531372 
	C1020.619507,433.119873 1018.779602,436.641113 1015.436462,439.187653 
	C1016.643188,440.191956 1017.728394,440.786316 1018.369324,441.694275 
	C1019.624756,443.472595 1022.872620,444.331726 1021.725220,447.242157 
	C1020.638428,449.998932 1017.670105,449.004333 1015.519958,449.368530 
	C1010.871765,450.155792 1007.914185,453.129547 1008.621765,457.329681 
	C1009.030518,459.756012 1010.631165,461.833069 1012.169800,463.819672 
	C1013.868286,466.012756 1014.763855,467.838593 1012.496277,470.759094 
	C1009.479248,474.644897 1011.723511,480.597656 1015.684082,481.007141 
	C1023.629944,481.828674 1024.143555,482.873108 1019.876892,489.447266 
	C1019.758911,489.629089 1020.004211,490.046692 1020.119873,490.515259 
	C1021.720154,490.674225 1023.360107,490.837097 1025.000000,491.000000 
	C1025.000000,494.030609 1025.000000,497.061188 1025.000000,500.545898 
M1013.809082,204.776215 
	C1019.634949,202.950836 1014.156250,200.965103 1013.803772,199.014862 
	C1012.858948,200.822281 1010.231018,202.389999 1013.809082,204.776215 
z"/>
<path fill="#000000" opacity="1.000000" stroke="none" 
	d="
M347.531342,0.999998 
	C346.156616,3.741271 344.137817,6.383808 342.522614,9.253500 
	C341.102722,11.776189 339.738647,14.149219 336.745514,15.032501 
	C336.287994,15.167525 335.933563,15.635236 335.477509,15.794628 
	C332.115601,16.969603 333.197906,25.631962 327.079590,21.406363 
	C323.647247,19.035818 319.325439,19.479876 316.163208,16.148483 
	C313.560120,13.406158 309.557739,12.082961 307.658875,8.215149 
	C307.068481,7.012578 304.987366,6.141034 303.458038,5.878089 
	C299.451508,5.189244 296.102844,3.109573 292.284027,1.197808 
	C310.354218,1.000000 328.708466,1.000000 347.531342,0.999998 
z"/>
<path fill="#000000" opacity="1.000000" stroke="none" 
	d="
M957.531616,1.000000 
	C957.329163,2.730539 956.828552,4.471560 957.421814,6.347321 
	C958.837524,10.823749 957.134155,14.280926 953.766968,17.535269 
	C947.892212,12.770784 941.928223,8.358516 938.161499,1.300683 
	C944.354431,1.000000 950.708801,1.000000 957.531616,1.000000 
z"/>
<path fill="#000000" opacity="1.000000" stroke="none" 
	d="
M1025.000000,154.555832 
	C1023.639587,154.173187 1021.427124,155.636948 1020.618469,153.541061 
	C1019.991699,151.916428 1017.947449,150.673203 1018.897583,148.615509 
	C1019.998047,146.232315 1022.322388,147.214020 1024.595459,146.991623 
	C1025.000000,149.370560 1025.000000,151.741104 1025.000000,154.555832 
z"/>
<path fill="#000000" opacity="1.000000" stroke="none" 
	d="
M1019.055542,265.282074 
	C1020.451355,263.588226 1022.131836,262.721649 1024.622803,263.006409 
	C1025.000000,264.714355 1025.000000,266.428711 1025.000000,268.571533 
	C1022.937744,268.046234 1020.007874,268.577759 1019.055542,265.282074 
z"/>
<path fill="#000000" opacity="1.000000" stroke="none" 
	d="
M1025.000000,139.583344 
	C1022.811462,139.848236 1020.471008,140.070999 1019.083740,137.311996 
	C1020.768677,136.427643 1022.573303,135.880005 1024.688965,135.166168 
	C1025.000000,136.388885 1025.000000,137.777786 1025.000000,139.583344 
z"/>
<path fill="#000000" opacity="1.000000" stroke="none" 
	d="
M955.672607,282.761780 
	C955.125671,283.774933 954.258362,284.824280 954.493042,285.219788 
	C956.450134,288.518127 960.094360,291.540344 955.481995,295.458862 
	C962.071228,300.555725 954.918884,307.956573 958.549194,313.781189 
	C959.795227,315.780273 957.781677,318.558746 956.601868,320.754578 
	C955.268127,323.236755 954.541382,325.679504 956.315918,328.482147 
	C958.170654,329.539429 961.368408,326.491791 962.637329,330.018738 
	C963.444275,332.261536 960.929016,332.496735 959.951172,333.832397 
	C960.763489,335.450378 964.313721,334.230438 963.618408,337.783752 
	C960.850281,335.929108 958.543640,337.297211 956.373840,338.937622 
	C954.070862,340.678833 952.639954,339.944092 950.423645,338.215942 
	C945.976562,334.748322 943.110779,329.470886 936.860291,327.814880 
	C934.283569,327.132233 932.901123,321.797607 934.235474,319.152771 
	C937.356323,312.967377 938.348938,307.530243 933.588989,301.826843 
	C931.088989,298.831207 933.181824,295.897095 935.394775,294.546295 
	C940.176575,291.627411 940.091125,286.532013 942.552246,282.600281 
	C940.697205,281.411133 939.267639,281.619965 937.795044,281.951843 
	C936.560181,284.148926 940.451477,286.196564 937.938416,288.353851 
	C929.788147,285.431580 930.630432,281.074097 941.114746,272.029419 
	C943.783325,272.449219 944.761169,274.682983 945.899536,276.678345 
	C947.922058,280.223175 951.148926,280.582672 954.570374,279.771729 
	C957.036865,279.187164 958.952087,277.568939 957.805969,274.678162 
	C956.936584,272.485413 957.593323,270.870667 958.704895,269.106232 
	C963.135193,262.074402 961.471985,260.463074 953.765686,258.539520 
	C949.340393,257.434937 947.218018,253.321396 943.504089,251.286621 
	C942.549194,250.763458 942.562744,248.537033 943.766724,246.788864 
	C952.068420,251.069000 953.401978,244.187592 955.338806,238.542542 
	C960.509399,240.702179 961.126831,245.833817 964.572266,249.011765 
	C962.178955,251.380493 961.689270,253.584503 964.223206,256.297943 
	C966.772888,259.028198 964.490295,262.721863 963.881409,265.236725 
	C962.477112,271.036652 959.733337,276.464111 962.106506,282.468353 
	C959.554871,283.689850 957.819946,279.623810 955.672607,282.761780 
M951.757446,323.813995 
	C950.757019,321.136353 949.335327,318.930725 946.227234,318.477509 
	C944.706665,320.475433 944.949768,322.505493 945.257263,324.411346 
	C945.593201,326.493317 946.929504,328.312378 949.049438,328.437561 
	C951.407043,328.576782 951.699402,326.436157 951.757446,323.813995 
z"/>
<path fill="#000000" opacity="1.000000" stroke="none" 
	d="
M943.211182,495.633301 
	C940.351379,494.987366 939.423096,492.826874 939.664490,490.428284 
	C939.970642,487.385376 942.008240,488.550323 943.750854,489.232147 
	C945.531372,489.928833 946.395447,488.200745 947.655151,487.551880 
	C949.530945,486.585754 950.457825,484.132385 953.041626,484.495178 
	C952.487122,480.602051 948.924011,477.851166 949.867798,473.565948 
	C958.278259,477.976471 968.652344,500.467133 967.255493,511.933014 
	C965.366882,506.743103 961.204468,503.555603 962.226440,498.281891 
	C956.897461,506.369080 964.590332,512.513245 966.639343,520.705322 
	C962.030151,518.390686 958.004272,518.868408 955.190063,521.296265 
	C951.185303,524.751099 957.449890,528.300049 956.083435,532.112122 
	C953.152405,531.035461 941.603821,520.613281 940.758423,518.280884 
	C942.321533,516.781982 943.859863,518.738586 946.169373,518.180054 
	C940.904541,515.764893 940.155884,512.154053 942.538940,507.754791 
	C943.536072,505.913971 942.190979,504.534149 941.696289,503.058868 
	C940.770203,500.297028 940.630066,497.866669 943.211182,495.633301 
z"/>
<path fill="#000000" opacity="1.000000" stroke="none" 
	d="
M951.459412,442.627319 
	C948.234924,442.743835 949.859802,440.843109 950.044312,439.666107 
	C950.583801,436.224304 953.168091,433.623016 954.289124,430.557495 
	C952.399658,428.581818 951.756775,432.233002 949.856812,430.676605 
	C949.345215,426.480774 948.746033,421.929260 948.249817,417.366547 
	C947.932129,414.445923 950.972473,414.400879 952.819092,412.358917 
	C949.452576,404.776672 947.982544,396.554230 950.719727,387.860046 
	C946.703491,389.499512 949.574158,395.348114 943.935303,395.602173 
	C942.272400,390.388397 946.942505,385.436279 945.020020,379.751343 
	C947.751221,383.788788 951.963623,384.272583 955.645630,385.769135 
	C956.733337,386.211243 957.873169,386.839996 958.999695,386.269226 
	C964.991272,383.233795 965.320862,387.101837 965.378845,391.429993 
	C958.666809,394.170380 956.518250,400.385529 954.263184,406.380310 
	C953.565430,408.235352 954.358704,410.436798 955.766296,411.973236 
	C958.677246,415.150757 958.278931,419.728607 960.793396,423.167999 
	C961.998047,424.815735 960.997925,427.329376 959.772461,429.281464 
	C957.034485,433.642944 954.385132,438.060059 951.459412,442.627319 
z"/>
<path fill="#000000" opacity="1.000000" stroke="none" 
	d="
M1005.600586,68.023376 
	C1003.481018,73.137894 1009.218872,75.890457 1008.628174,80.408417 
	C1008.449463,81.775520 1009.082397,83.294090 1008.421265,84.744514 
	C1005.740051,90.626350 1006.665344,96.066475 1010.560547,101.072159 
	C1014.256226,105.821312 1012.993652,110.679268 1011.179504,115.567619 
	C1007.555359,116.547714 1003.663147,115.186356 1000.482178,117.891602 
	C997.556458,114.899811 997.593750,111.764130 999.314819,108.659462 
	C1001.338989,105.008064 1001.632935,101.476059 999.624268,97.781342 
	C998.004761,94.802483 999.390320,92.647484 1001.732544,90.946182 
	C1003.978333,89.314934 1005.224060,87.421921 1004.232849,84.571945 
	C998.317810,83.060104 997.484741,81.602531 999.850647,75.640533 
	C1001.004333,72.733208 1000.901550,69.818420 1001.050659,66.841988 
	C1001.142639,65.004845 1000.691284,62.132515 1003.605957,62.391163 
	C1006.895386,62.683079 1006.636902,65.243065 1005.600586,68.023376 
z"/>
<path fill="#000000" opacity="1.000000" stroke="none" 
	d="
M939.267883,171.498260 
	C937.123474,168.989319 939.177002,166.520996 938.220520,163.808228 
	C942.273743,164.280579 941.958069,168.691330 944.606873,169.572372 
	C948.480103,163.967773 940.179199,160.217758 942.587463,154.885788 
	C941.025879,153.404648 940.328979,156.379028 938.560852,154.941025 
	C937.896484,153.068497 937.998779,151.157089 940.863525,150.588562 
	C942.283936,150.306641 943.770081,150.089066 943.737061,148.459396 
	C943.597046,141.558182 948.363647,137.686905 953.113464,133.011551 
	C955.711792,136.433365 953.893372,140.203720 952.643677,142.364441 
	C948.571350,149.405716 946.307495,156.330215 947.758728,164.636322 
	C948.496338,168.858688 946.004272,173.430252 947.851257,177.531448 
	C949.854431,179.515961 952.303040,176.030731 953.973328,178.551422 
	C949.786682,183.443329 948.228943,183.529434 944.288879,179.451508 
	C943.305786,178.434021 941.850281,177.872910 940.588440,177.087433 
	C939.969116,175.299164 943.890686,172.588715 939.267883,171.498260 
z"/>
<path fill="#000000" opacity="1.000000" stroke="none" 
	d="
M335.545288,590.135498 
	C340.842255,586.275085 342.786163,586.419250 348.163727,591.539429 
	C344.229187,592.673279 346.097992,596.545227 344.404541,599.115234 
	C341.469055,598.590454 342.099579,595.276917 340.132263,593.887756 
	C331.297180,594.373962 335.773926,600.409973 336.356781,605.266968 
	C333.862732,604.227173 331.960754,606.560303 329.303894,604.449280 
	C334.795227,600.880676 330.760956,596.948486 329.874023,593.062073 
	C329.323303,590.648926 326.286041,587.787170 329.359467,585.987610 
	C332.530792,584.130737 333.322693,588.494934 335.545288,590.135498 
z"/>
<path fill="#000000" opacity="1.000000" stroke="none" 
	d="
M954.871704,106.845055 
	C957.409119,107.023987 959.167664,107.795273 957.927429,110.501961 
	C957.144043,112.211792 957.432312,113.672760 958.152649,115.235603 
	C958.942993,116.950577 958.816711,118.470451 956.943237,119.431664 
	C954.524780,120.672485 954.637207,117.920906 953.456177,117.076515 
	C949.579346,119.423119 945.723450,121.362091 942.045471,116.819771 
	C941.492126,116.136406 941.011963,115.469498 941.298706,114.612709 
	C941.664551,113.519936 942.608704,113.315063 943.672424,113.231300 
	C950.858276,112.665466 950.857117,112.650909 949.047241,105.943535 
	C951.127075,104.990891 952.512268,107.949768 954.871704,106.845055 
z"/>
<path fill="#000000" opacity="1.000000" stroke="none" 
	d="
M913.468994,145.043396 
	C916.806213,150.675323 916.914001,153.470749 914.050171,161.308792 
	C913.096558,159.368301 913.897827,157.004318 911.811279,155.935349 
	C909.573608,156.662567 910.402832,158.481369 910.481750,160.009155 
	C910.544250,161.218353 909.922974,161.903549 908.826477,162.089783 
	C907.632141,162.292618 906.971375,161.657990 906.843201,160.463013 
	C906.370911,156.060455 903.802856,151.225891 909.499207,148.124786 
	C911.511292,147.029419 909.891663,144.632141 911.044983,143.217102 
	C912.460693,142.843689 912.740051,143.992844 913.468994,145.043396 
z"/>
<path fill="#000000" opacity="1.000000" stroke="none" 
	d="
M850.076355,222.189056 
	C843.151917,221.827576 841.196350,218.325119 845.056213,213.325027 
	C846.951843,210.869415 845.968994,208.803879 845.026794,206.409805 
	C848.420959,205.240128 851.155457,204.072235 850.827820,209.453918 
	C850.655884,212.279755 852.693542,214.658554 853.940369,217.280197 
	C852.727722,218.854706 851.532959,220.406006 850.076355,222.189056 
z"/>
<path fill="#000000" opacity="1.000000" stroke="none" 
	d="
M954.294678,210.365021 
	C954.230835,207.404373 952.345520,204.982422 953.479919,202.123215 
	C957.903931,200.957062 962.025757,200.362976 963.561829,205.936325 
	C965.321045,206.695557 966.614136,204.696518 968.207397,205.879807 
	C969.075806,207.248703 968.950195,209.544708 967.475403,209.354523 
	C962.927185,208.767944 959.259949,215.770508 954.294678,210.365021 
z"/>
<path fill="#000000" opacity="1.000000" stroke="none" 
	d="
M975.182373,247.551697 
	C978.017822,248.065399 980.598083,248.494217 979.299133,252.646057 
	C976.266663,250.888763 973.118347,253.426498 969.814819,252.098938 
	C970.555237,249.043335 972.491455,248.071167 975.182373,247.551697 
z"/>
<path fill="#000000" opacity="1.000000" stroke="none" 
	d="
M889.767456,141.535889 
	C891.079041,142.487961 892.019653,143.401962 893.066040,144.172089 
	C894.344666,145.113083 895.609375,146.166977 894.416992,147.772308 
	C893.378662,149.170212 891.729797,148.878220 890.358704,148.117554 
	C888.453064,147.060364 886.586487,145.722717 886.523254,143.340912 
	C886.478516,141.654938 888.066772,141.475388 889.767456,141.535889 
z"/>
<path fill="#000000" opacity="1.000000" stroke="none" 
	d="
M982.764038,374.327881 
	C985.001465,374.286346 986.539734,375.274933 985.333923,377.226013 
	C983.952576,379.460999 982.508850,382.365662 978.943970,381.574768 
	C977.582825,381.272736 977.220581,380.162506 977.651062,378.864746 
	C978.114624,377.467194 978.313965,375.924316 980.607239,376.801422 
	C983.019348,377.723999 981.896729,375.250427 982.764038,374.327881 
z"/>
<path fill="#000000" opacity="1.000000" stroke="none" 
	d="
M954.508484,100.676292 
	C952.498352,104.815460 948.983154,103.161652 946.010864,102.990982 
	C944.974976,102.931503 944.295044,100.612709 945.579041,100.303825 
	C948.426636,99.618813 951.531372,96.597977 954.508484,100.676292 
z"/>
<path fill="#000000" opacity="1.000000" stroke="none" 
	d="
M825.863525,203.939789 
	C825.366394,206.058884 824.976196,208.040482 822.402100,207.211853 
	C820.754456,206.681442 819.584534,205.479111 819.396362,203.703491 
	C819.216248,202.003357 820.278687,200.847351 821.799683,200.471558 
	C824.282532,199.858124 825.319092,201.478134 825.863525,203.939789 
z"/>
<path fill="#000000" opacity="1.000000" stroke="none" 
	d="
M946.876221,442.041626 
	C946.132202,443.377838 945.572083,444.445007 944.118469,444.230408 
	C941.746155,437.599579 941.746155,437.599579 946.163818,435.059662 
	C947.849915,437.098877 947.184875,439.431396 946.876221,442.041626 
z"/>
<path fill="#000000" opacity="1.000000" stroke="none" 
	d="
M330.699310,546.028687 
	C331.454254,542.586975 332.422333,539.351624 333.466125,535.863342 
	C337.053894,540.156616 336.108246,543.424561 330.699310,546.028687 
z"/>
<path fill="#000000" opacity="1.000000" stroke="none" 
	d="
M980.918518,508.407288 
	C979.767944,507.787170 978.763550,507.361328 977.621338,506.877075 
	C978.936401,504.666077 980.869080,503.902618 982.883545,503.212036 
	C984.532227,504.659119 984.993347,506.437378 984.242004,508.218964 
	C983.608765,509.720459 982.488525,511.611481 980.918518,508.407288 
z"/>
<path fill="#000000" opacity="1.000000" stroke="none" 
	d="
M334.760834,631.317017 
	C334.651520,632.610596 334.692627,633.744019 334.173462,634.484680 
	C332.883850,636.324219 330.841919,635.353455 329.126068,635.374512 
	C328.282135,635.384888 327.706024,634.464050 327.767303,633.556763 
	C327.909393,631.453552 329.957489,631.865662 331.154144,631.197754 
	C332.208710,630.609192 333.399109,629.433472 334.760834,631.317017 
z"/>
<path fill="#000000" opacity="1.000000" stroke="none" 
	d="
M322.559509,623.512268 
	C321.356262,619.253296 327.438721,621.884521 327.279907,618.418396 
	C326.924286,620.582947 326.568695,622.747437 326.214325,624.904419 
	C324.573120,625.786682 323.688568,624.662720 322.559509,623.512268 
z"/>
<path fill="#000000" opacity="1.000000" stroke="none" 
	d="
M117.146576,365.541351 
	C119.980644,364.370026 120.565598,366.065735 120.658661,368.026855 
	C120.721962,369.361053 119.752899,370.378448 118.449760,369.985382 
	C116.308258,369.339386 115.725609,367.788788 117.146576,365.541351 
z"/>
<path fill="#000000" opacity="1.000000" stroke="none" 
	d="
M331.181519,559.878113 
	C335.966797,560.423218 334.819824,562.566223 333.207062,565.448792 
	C330.647369,563.856506 330.789429,561.950928 331.181519,559.878113 
z"/>
<path fill="#000000" opacity="1.000000" stroke="none" 
	d="
M930.672852,315.267029 
	C927.608337,316.408478 927.608337,316.408478 926.931824,311.914093 
	C930.054077,310.626740 930.997986,312.025513 930.672852,315.267029 
z"/>
<path fill="#000000" opacity="1.000000" stroke="none" 
	d="
M334.469208,613.610840 
	C334.414581,615.963928 335.623413,618.114807 333.748901,620.885559 
	C330.980896,617.722534 333.862244,614.339233 332.187256,611.511780 
	C333.709656,611.788208 333.992462,612.606567 334.469208,613.610840 
z"/>
<path fill="#000000" opacity="1.000000" stroke="none" 
	d="
M118.285782,597.680420 
	C121.276573,596.822083 122.075729,598.087219 121.249565,602.338501 
	C118.555214,602.000549 118.967514,599.606201 118.285782,597.680420 
z"/>
<path fill="#000000" opacity="1.000000" stroke="none" 
	d="
M985.464722,392.598175 
	C984.186584,393.724487 983.021240,394.559174 981.374939,395.738373 
	C980.965027,393.405396 983.392456,391.771423 980.792480,389.964203 
	C983.788574,389.570343 985.265625,389.964417 985.464722,392.598175 
z"/>
<path fill="#000000" opacity="1.000000" stroke="none" 
	d="
M959.777344,142.748627 
	C958.428528,145.111191 957.005615,144.716614 955.911438,143.041519 
	C955.064941,141.745697 956.138306,140.966080 957.263489,140.461823 
	C959.332886,139.534363 959.940857,140.549377 959.777344,142.748627 
z"/>
<path fill="#000000" opacity="1.000000" stroke="none" 
	d="
M462.974304,320.399658 
	C453.736572,320.399658 444.993256,320.399658 435.282654,320.399658 
	C441.770325,301.765533 447.848053,284.308929 454.387604,265.525787 
	C461.651459,284.322723 468.383240,301.742767 475.277954,319.584473 
	C470.979156,320.975525 467.173401,320.140411 462.974304,320.399658 
z"/>
</svg>