<svg xmlns="http://www.w3.org/2000/svg" viewBox="0 0 512 512" role="img" aria-label="AG">
  <rect width="512" height="512" fill="#fff"/>
  <path
    fill="#000"
    d="M0 77c24-28 32-50 26-75 13 22 19 20 31 17 13-4 14-21 36 5 12 15 43-11 56 15 7 14 0 34 22 45 33 17 55 25 86 8 30-17 61-14 86-4 38 15 67-7 97-24 23-12 36-6 52 10 24 24 57 4 84 8 21 4 37 20 62 12 49-16 57-7 92-43 20-20 63-29 82-51v512H0v-97c28-25 27-48 35-82 12-44 36-65 18-105-11-23-3-43 7-67 16-39-17-86-41-127C6 112-2 93 0 77Z"
    transform="scale(.63)"
  />
  <path
    fill="#000"
    d="M102 0h410v512H29c-9-26-19-49-29-76v-48c21-20 23-39 31-70 10-39 30-59 18-92-8-23 4-39 19-60 25-35-7-76-24-113C35 34 73 50 92 24 98 16 99 7 102 0Z"
  />
  <path
    fill="#fff"
    d="M471 303c-40 15-90 14-127-2-47-19-74-61-74-112 0-48 25-89 69-112 42-22 94-23 138-7 8 3 12 8 12 16v47c0 8-7 13-15 10-27-11-58-15-87-9-32 7-59 29-69 61-11 35-1 75 28 96 26 19 63 23 94 13 6-2 9-6 9-12v-29c0-5-3-8-8-8h-49c-5 0-8-3-8-8v-33c0-5 3-8 8-8h93c5 0 8 3 8 8v83c0 7 3 14 8 19-8 7-18 12-30 16Z"
  />
  <path
    fill="#fff"
    d="M216 80c12 0 18 5 22 16l91 244c3 8-1 13-9 13h-42c-12 0-18-5-22-17l-20-54H125l-20 54c-4 12-10 17-22 17H41c-8 0-12-5-9-13l91-244c4-11 10-16 22-16h71Zm-72 147h73l-37-103-36 103Z"
  />
  <path
    fill="#fff"
    d="M451 356c-13 22-6 34-6 51 0 19-9 32-20 44-12 13-13 29-9 47H71c-6-26-9-54-8-89 0-23 15-29 27-18 15 13 38 29 65 30 20 1 37-11 42-29 4-15 17-26 33-35h221Z"
  />
  <path
    fill="#000"
    d="M0 436c28 14 43 41 63 76H0v-76ZM414 512c-4-18 3-33 17-45 15-13 34-22 43-43 10-24 20-48 38-68v156h-98Z"
  />
</svg>
